<?xml version="1.0" encoding="utf-8"?>
<!-- Generator: Adobe Illustrator 25.2.0, SVG Export Plug-In . SVG Version: 6.00 Build 0)  -->
<svg version="1.1" id="Layer_1" xmlns="http://www.w3.org/2000/svg" xmlns:xlink="http://www.w3.org/1999/xlink" x="0px" y="0px"
	 viewBox="0 0 1677.3 364.5" style="enable-background:new 0 0 1677.3 364.5;" xml:space="preserve">
<style type="text/css">
	.st0{fill:#FFFFFF;}
	.st1{clip-path:url(#SVGID_6_);}
	.st2{fill:#2263A5;stroke:#465E84;stroke-width:0.75;stroke-miterlimit:10;}
	.st3{fill:#2263A5;stroke:#465E84;stroke-width:0.25;stroke-miterlimit:10;}
	.st4{clip-path:url(#SVGID_10_);}
	.st5{clip-path:url(#SVGID_14_);}
	.st6{clip-path:url(#SVGID_16_);}
</style>
<path class="st0" d="M1617.3,364.5H60c-33.1,0-60-26.9-60-60V60C0,26.9,26.9,0,60,0h1557.3c33.1,0,60,26.9,60,60v244.5
	C1677.3,337.7,1650.4,364.5,1617.3,364.5z"/>
<g id="Bitmap" transform="matrix(1.177,0,0,1.179,83.4,196.818)">
</g>
<g>
	<g>
		<defs>
			<rect id="SVGID_1_" x="2531.1" y="-37.8" width="1537.7" height="281.8"/>
		</defs>
		<clipPath id="SVGID_2_">
			<use xlink:href="#SVGID_1_"  style="overflow:visible;"/>
		</clipPath>
		<g transform="matrix(1 0 0 1 2.441406e-04 0)" style="clip-path:url(#SVGID_2_);">
			
				<image style="overflow:visible;" width="1251" height="229" xlink:href="3DFCDF4F.png"  transform="matrix(1.2292 0 0 1.2306 2531.1016 -37.7689)">
			</image>
		</g>
	</g>
</g>
<g>
	<g>
		<defs>
			<rect id="SVGID_3_" x="69.8" y="41.4" width="1537.7" height="281.8"/>
		</defs>
		<clipPath id="SVGID_4_">
			<use xlink:href="#SVGID_3_"  style="overflow:visible;"/>
		</clipPath>
		<g style="clip-path:url(#SVGID_4_);">
			
				<image style="overflow:visible;" width="1251" height="229" xlink:href="3DFCDF4D.png"  transform="matrix(1.2292 0 0 1.2306 69.7955 41.3571)">
			</image>
		</g>
	</g>
</g>
<g>
	<g>
		<path class="st0" d="M2755.1,569.7v-81.1h35.4c8.9,0,15.4,0.7,19.4,2.2c4,1.5,7.3,4,9.7,7.8c2.4,3.7,3.6,8,3.6,12.8
			c0,6.1-1.8,11.1-5.5,15.1c-3.7,4-9.2,6.5-16.5,7.5c3.6,2.1,6.6,4.3,9,6.8c2.4,2.5,5.6,6.9,9.6,13.2l10.2,15.8H2810l-12.2-17.6
			c-4.3-6.3-7.3-10.3-8.9-11.9c-1.6-1.6-3.3-2.8-5.1-3.4c-1.8-0.6-4.6-0.9-8.5-0.9h-3.4v33.8H2755.1z M2772,522.9h12.5
			c8.1,0,13.1-0.3,15.1-1c2-0.7,3.6-1.8,4.7-3.4c1.1-1.6,1.7-3.7,1.7-6.1c0-2.7-0.7-4.9-2.2-6.6c-1.5-1.7-3.6-2.7-6.3-3.2
			c-1.4-0.2-5.5-0.3-12.3-0.3H2772V522.9z"/>
		<path class="st0" d="M2835.4,539.5c0-5.2,1.3-10.2,3.9-15c2.6-4.8,6.3-8.5,11.1-11.1c4.8-2.5,10.2-3.8,16.1-3.8
			c9.1,0,16.6,2.9,22.5,8.7c5.8,5.8,8.8,13.1,8.8,21.9c0,8.9-2.9,16.3-8.8,22.1c-5.9,5.8-13.3,8.8-22.3,8.8
			c-5.5,0-10.8-1.2-15.8-3.7c-5-2.4-8.8-6-11.5-10.7C2836.7,552,2835.4,546.3,2835.4,539.5z M2851.8,540.4c0,5.8,1.4,10.3,4.3,13.4
			c2.8,3.1,6.4,4.6,10.5,4.6c4.2,0,7.7-1.5,10.5-4.6c2.8-3.1,4.2-7.6,4.2-13.5c0-5.8-1.4-10.2-4.2-13.3c-2.8-3.1-6.3-4.6-10.5-4.6
			c-4.2,0-7.7,1.5-10.5,4.6C2853.2,530.1,2851.8,534.5,2851.8,540.4z"/>
		<path class="st0" d="M2938,511v12.4h-10.9v23.7c0,4.8,0.1,7.6,0.3,8.4c0.2,0.8,0.7,1.4,1.4,2c0.7,0.5,1.6,0.8,2.7,0.8
			c1.5,0,3.6-0.5,6.4-1.5l1.4,12.1c-3.7,1.5-7.9,2.3-12.6,2.3c-2.9,0-5.5-0.5-7.8-1.4c-2.3-0.9-4-2.2-5.1-3.7s-1.8-3.5-2.2-6.1
			c-0.3-1.8-0.5-5.5-0.5-11v-25.6h-7.3V511h7.3v-11.7l16-9.1V511H2938z"/>
		<path class="st0" d="M2961,528.9l-14.5-2.5c1.6-5.7,4.4-9.9,8.4-12.6c4-2.7,9.9-4.1,17.8-4.1c7.1,0,12.4,0.8,15.9,2.5
			c3.5,1.6,5.9,3.7,7.4,6.2c1.4,2.5,2.1,7.2,2.1,13.9l-0.2,18.1c0,5.2,0.3,9,0.8,11.4c0.5,2.5,1.5,5.1,2.9,7.9h-15.8
			c-0.4-1-0.9-2.6-1.5-4.6c-0.3-0.9-0.5-1.5-0.6-1.8c-2.7,2.6-5.7,4.5-8.8,5.8c-3.1,1.3-6.4,1.9-10,1.9c-6.2,0-11.1-1.6-14.7-4.9
			c-3.6-3.3-5.4-7.4-5.4-12.4c0-3.3,0.8-6.3,2.4-8.9c1.6-2.6,3.9-4.6,6.9-6c2.9-1.4,7.2-2.6,12.7-3.6c7.5-1.4,12.6-2.6,15.5-3.8
			v-1.5c0-3-0.8-5.1-2.3-6.4c-1.5-1.3-4.4-1.9-8.6-1.9c-2.8,0-5.1,0.5-6.7,1.6C2963.3,524.3,2962,526.2,2961,528.9z M2982.4,541.5
			c-2,0.7-5.3,1.5-9.7,2.4c-4.4,0.9-7.3,1.8-8.7,2.7c-2.1,1.4-3.1,3.3-3.1,5.5c0,2.2,0.8,4.1,2.5,5.6c1.7,1.6,3.8,2.4,6.4,2.4
			c2.9,0,5.6-0.9,8.2-2.8c1.9-1.4,3.2-3.1,3.8-5.1c0.4-1.3,0.6-3.9,0.6-7.6V541.5z"/>
		<path class="st0" d="M3029.2,569.7h-16V511h14.8v8.4c2.5-3.9,4.8-6.5,6.9-7.8c2-1.3,4.3-1.9,6.9-1.9c3.6,0,7.1,1,10.5,2.9l-5,13.6
			c-2.7-1.7-5.2-2.5-7.5-2.5c-2.2,0-4.1,0.6-5.7,1.8c-1.6,1.2-2.8,3.4-3.7,6.5c-0.9,3.1-1.3,9.7-1.3,19.7V569.7z"/>
		<path class="st0" d="M3051.7,511h17l14.5,41.7l14.1-41.7h16.6l-21.3,56.5l-3.8,10.2c-1.4,3.4-2.7,6-4,7.9
			c-1.3,1.8-2.7,3.3-4.4,4.4s-3.7,2-6.1,2.6c-2.4,0.6-5.1,0.9-8.2,0.9c-3.1,0-6.1-0.3-9-0.9l-1.4-12.2c2.5,0.5,4.8,0.7,6.8,0.7
			c3.7,0,6.5-1.1,8.2-3.2c1.8-2.1,3.1-4.8,4.1-8.1L3051.7,511z"/>
	</g>
	<g>
		<path class="st0" d="M2540.8,598.3h16.6c3.3,0,5.7,0.1,7.4,0.4c1.6,0.3,3.1,0.8,4.3,1.7c1.3,0.9,2.3,2,3.2,3.4
			c0.9,1.4,1.3,3,1.3,4.8c0,1.9-0.5,3.7-1.6,5.3s-2.5,2.8-4.3,3.6c2.5,0.7,4.5,2,5.8,3.7s2,3.8,2,6.2c0,1.9-0.4,3.7-1.3,5.4
			c-0.9,1.8-2.1,3.2-3.6,4.2c-1.5,1-3.4,1.7-5.6,1.9c-1.4,0.1-4.8,0.2-10.1,0.3h-14.2V598.3z M2549.2,605.1v9.4h5.5
			c3.3,0,5.3,0,6.1-0.1c1.4-0.2,2.6-0.7,3.4-1.5c0.8-0.8,1.2-1.9,1.2-3.2c0-1.3-0.4-2.3-1.1-3.1c-0.7-0.8-1.8-1.3-3.2-1.4
			c-0.8-0.1-3.2-0.1-7.2-0.1H2549.2z M2549.2,621.3v10.9h7.8c3,0,4.9-0.1,5.8-0.2c1.2-0.2,2.3-0.8,3.1-1.6c0.8-0.9,1.2-2,1.2-3.5
			c0-1.2-0.3-2.3-0.9-3.1c-0.6-0.9-1.5-1.5-2.6-1.9c-1.1-0.4-3.6-0.6-7.5-0.6H2549.2z"/>
		<path class="st0" d="M2588.6,618.5l-7.2-1.3c0.8-2.9,2.2-5,4.2-6.3s4.9-2.1,8.9-2.1c3.6,0,6.2,0.4,7.9,1.2c1.7,0.8,3,1.9,3.7,3.1
			s1.1,3.6,1.1,7l-0.1,9.1c0,2.6,0.1,4.5,0.4,5.7c0.3,1.2,0.7,2.6,1.4,4h-7.9c-0.2-0.5-0.5-1.3-0.8-2.3c-0.1-0.5-0.2-0.8-0.3-0.9
			c-1.4,1.3-2.8,2.3-4.4,2.9c-1.6,0.6-3.2,1-5,1c-3.1,0-5.5-0.8-7.3-2.5s-2.7-3.7-2.7-6.3c0-1.7,0.4-3.2,1.2-4.5
			c0.8-1.3,2-2.3,3.4-3c1.5-0.7,3.6-1.3,6.3-1.8c3.7-0.7,6.3-1.3,7.7-1.9V619c0-1.5-0.4-2.6-1.1-3.2c-0.8-0.6-2.2-1-4.3-1
			c-1.4,0-2.5,0.3-3.3,0.8C2589.8,616.2,2589.1,617.2,2588.6,618.5z M2599.3,624.9c-1,0.3-2.6,0.7-4.9,1.2c-2.2,0.5-3.7,0.9-4.3,1.4
			c-1,0.7-1.6,1.6-1.6,2.8c0,1.1,0.4,2,1.2,2.8c0.8,0.8,1.9,1.2,3.2,1.2c1.4,0,2.8-0.5,4.1-1.4c1-0.7,1.6-1.6,1.9-2.6
			c0.2-0.7,0.3-1.9,0.3-3.8V624.9z"/>
		<path class="st0" d="M2642.4,639.1h-8V624c0-3.2-0.2-5.3-0.5-6.2c-0.3-0.9-0.9-1.7-1.7-2.2c-0.8-0.5-1.7-0.8-2.8-0.8
			c-1.4,0-2.6,0.4-3.7,1.1c-1.1,0.7-1.8,1.7-2.3,3c-0.4,1.2-0.6,3.5-0.6,6.8v13.4h-8v-29.6h7.4v4.3c2.6-3.3,5.9-5,9.9-5
			c1.8,0,3.4,0.3,4.8,0.9s2.6,1.4,3.3,2.4c0.7,1,1.3,2.1,1.6,3.3s0.4,3,0.4,5.3V639.1z"/>
		<path class="st0" d="M2649.8,641l9.1,1.1c0.2,1,0.5,1.8,1,2.1c0.8,0.6,1.9,0.8,3.6,0.8c2.1,0,3.6-0.3,4.7-0.9
			c0.7-0.4,1.2-1.1,1.6-2c0.2-0.6,0.4-1.8,0.4-3.6v-4.3c-2.4,3.2-5.4,4.8-9,4.8c-4,0-7.3-1.7-9.6-5c-1.9-2.7-2.8-6-2.8-9.9
			c0-5,1.2-8.7,3.6-11.4c2.4-2.6,5.5-3.9,9.1-3.9c3.7,0,6.8,1.6,9.2,4.8v-4.1h7.5V636c0,3.5-0.3,6.1-0.9,7.8s-1.4,3.1-2.5,4.1
			c-1.1,1-2.5,1.8-4.2,2.3c-1.8,0.6-4,0.8-6.7,0.8c-5.1,0-8.7-0.9-10.9-2.6c-2.1-1.7-3.2-3.9-3.2-6.5
			C2649.7,641.7,2649.7,641.4,2649.8,641z M2656.9,623.7c0,3.1,0.6,5.4,1.9,6.9c1.2,1.5,2.8,2.2,4.6,2.2c1.9,0,3.6-0.7,4.9-2.2
			c1.3-1.5,2-3.7,2-6.6c0-3.1-0.6-5.3-1.9-6.8c-1.3-1.5-2.9-2.2-4.9-2.2c-1.9,0-3.5,0.7-4.7,2.2
			C2657.5,618.5,2656.9,620.7,2656.9,623.7z"/>
		<path class="st0" d="M2692,618.5l-7.2-1.3c0.8-2.9,2.2-5,4.2-6.3s4.9-2.1,8.9-2.1c3.6,0,6.2,0.4,7.9,1.2c1.7,0.8,3,1.9,3.7,3.1
			s1.1,3.6,1.1,7l-0.1,9.1c0,2.6,0.1,4.5,0.4,5.7c0.3,1.2,0.7,2.6,1.4,4h-7.9c-0.2-0.5-0.5-1.3-0.8-2.3c-0.1-0.5-0.2-0.8-0.3-0.9
			c-1.4,1.3-2.8,2.3-4.4,2.9c-1.6,0.6-3.2,1-5,1c-3.1,0-5.5-0.8-7.3-2.5s-2.7-3.7-2.7-6.3c0-1.7,0.4-3.2,1.2-4.5
			c0.8-1.3,2-2.3,3.4-3c1.5-0.7,3.6-1.3,6.3-1.8c3.7-0.7,6.3-1.3,7.7-1.9V619c0-1.5-0.4-2.6-1.1-3.2c-0.8-0.6-2.2-1-4.3-1
			c-1.4,0-2.5,0.3-3.3,0.8C2693.1,616.2,2692.5,617.2,2692,618.5z M2702.6,624.9c-1,0.3-2.6,0.7-4.9,1.2c-2.2,0.5-3.7,0.9-4.3,1.4
			c-1,0.7-1.6,1.6-1.6,2.8c0,1.1,0.4,2,1.2,2.8c0.8,0.8,1.9,1.2,3.2,1.2c1.4,0,2.8-0.5,4.1-1.4c1-0.7,1.6-1.6,1.9-2.6
			c0.2-0.7,0.3-1.9,0.3-3.8V624.9z"/>
		<path class="st0" d="M2718.3,639.1v-40.8h8v40.8H2718.3z"/>
		<path class="st0" d="M2732.6,623.9c0-2.6,0.7-5.1,2-7.5s3.2-4.3,5.5-5.6c2.4-1.3,5.1-1.9,8-1.9c4.6,0,8.3,1.5,11.2,4.4
			c2.9,2.9,4.4,6.6,4.4,11c0,4.5-1.5,8.2-4.4,11.1c-2.9,2.9-6.6,4.4-11.1,4.4c-2.8,0-5.4-0.6-7.9-1.8c-2.5-1.2-4.4-3-5.7-5.4
			C2733.3,630.2,2732.6,627.3,2732.6,623.9z M2740.8,624.3c0,2.9,0.7,5.2,2.1,6.7s3.2,2.3,5.3,2.3c2.1,0,3.8-0.8,5.2-2.3
			s2.1-3.8,2.1-6.8c0-2.9-0.7-5.1-2.1-6.7s-3.2-2.3-5.2-2.3c-2.1,0-3.8,0.8-5.3,2.3S2740.8,621.4,2740.8,624.3z"/>
		<path class="st0" d="M2777.6,639.1h-8v-29.6h7.4v4.2c1.3-2,2.4-3.3,3.4-3.9s2.2-0.9,3.4-0.9c1.8,0,3.6,0.5,5.3,1.5l-2.5,6.8
			c-1.3-0.9-2.6-1.3-3.7-1.3c-1.1,0-2.1,0.3-2.8,0.9c-0.8,0.6-1.4,1.7-1.8,3.3c-0.4,1.6-0.7,4.9-0.7,9.9V639.1z"/>
		<path class="st0" d="M2810.1,629.7l7.9,1.3c-1,2.9-2.6,5-4.8,6.5s-5,2.2-8.3,2.2c-5.2,0-9.1-1.7-11.6-5c-2-2.7-3-6.1-3-10.2
			c0-4.9,1.3-8.7,3.9-11.5s5.9-4.2,9.9-4.2c4.5,0,8,1.5,10.6,4.4c2.6,2.9,3.8,7.4,3.7,13.3h-20c0.1,2.3,0.7,4.1,1.9,5.4
			c1.2,1.3,2.8,1.9,4.6,1.9c1.2,0,2.3-0.3,3.2-1S2809.6,631.2,2810.1,629.7z M2810.5,621.8c-0.1-2.3-0.7-4-1.8-5.2
			c-1.1-1.2-2.5-1.8-4.1-1.8c-1.7,0-3.2,0.6-4.3,1.9s-1.7,2.9-1.7,5.1H2810.5z"/>
		<path class="st0" d="M2860.5,624.1v-6.9h18.1v16.3c-1.8,1.7-4.3,3.1-7.6,4.4s-6.7,1.9-10.1,1.9c-4.4,0-8.1-0.9-11.4-2.7
			c-3.2-1.8-5.7-4.4-7.3-7.7c-1.6-3.3-2.4-7-2.4-10.9c0-4.2,0.9-8,2.7-11.3s4.5-5.8,8-7.6c2.7-1.4,6-2,10-2c5.2,0,9.2,1.1,12.1,3.2
			c2.9,2.1,4.8,5.1,5.6,8.8l-8.3,1.5c-0.6-2-1.7-3.6-3.3-4.7c-1.6-1.2-3.6-1.7-6.1-1.7c-3.7,0-6.6,1.1-8.8,3.4
			c-2.2,2.3-3.2,5.7-3.2,10.2c0,4.8,1.1,8.5,3.3,10.9c2.2,2.4,5.1,3.6,8.6,3.6c1.8,0,3.5-0.3,5.3-1c1.8-0.7,3.3-1.5,4.6-2.5v-5.2
			H2860.5z"/>
		<path class="st0" d="M2906.1,639.1v-4.4c-1.1,1.6-2.5,2.8-4.3,3.7c-1.8,0.9-3.7,1.4-5.7,1.4c-2,0-3.8-0.4-5.4-1.3
			c-1.6-0.9-2.8-2.1-3.5-3.7c-0.7-1.6-1.1-3.8-1.1-6.5v-18.7h8v13.6c0,4.2,0.1,6.7,0.4,7.6c0.3,0.9,0.8,1.7,1.6,2.2
			c0.8,0.5,1.8,0.8,3,0.8c1.4,0,2.6-0.4,3.7-1.1c1.1-0.7,1.8-1.6,2.2-2.7c0.4-1.1,0.6-3.7,0.6-8v-12.5h8v29.6H2906.1z"/>
		<path class="st0" d="M2921.8,639.1v-40.8h8v40.8H2921.8z"/>
		<path class="st0" d="M2937.4,609.5h7.4v4c2.6-3.1,5.8-4.7,9.4-4.7c1.9,0,3.6,0.4,5,1.2c1.4,0.8,2.6,2,3.5,3.5
			c1.3-1.6,2.8-2.8,4.3-3.5s3.2-1.2,4.9-1.2c2.2,0,4.1,0.4,5.6,1.3s2.7,2.2,3.4,3.9c0.5,1.3,0.8,3.3,0.8,6.1v18.9h-8v-16.9
			c0-2.9-0.3-4.8-0.8-5.7c-0.7-1.1-1.9-1.7-3.4-1.7c-1.1,0-2.2,0.3-3.2,1c-1,0.7-1.7,1.6-2.1,2.9c-0.4,1.3-0.7,3.3-0.7,6.1v14.2h-8
			v-16.2c0-2.9-0.1-4.7-0.4-5.6c-0.3-0.8-0.7-1.5-1.3-1.9c-0.6-0.4-1.4-0.6-2.4-0.6c-1.2,0-2.3,0.3-3.3,1s-1.7,1.6-2.1,2.8
			s-0.6,3.3-0.6,6.1v14.4h-8V609.5z"/>
		<path class="st0" d="M2987.8,623.9c0-2.6,0.7-5.1,2-7.5s3.2-4.3,5.5-5.6c2.4-1.3,5.1-1.9,8-1.9c4.6,0,8.3,1.5,11.2,4.4
			c2.9,2.9,4.4,6.6,4.4,11c0,4.5-1.5,8.2-4.4,11.1c-2.9,2.9-6.6,4.4-11.1,4.4c-2.8,0-5.4-0.6-7.9-1.8c-2.5-1.2-4.4-3-5.7-5.4
			C2988.5,630.2,2987.8,627.3,2987.8,623.9z M2996,624.3c0,2.9,0.7,5.2,2.1,6.7s3.2,2.3,5.3,2.3c2.1,0,3.8-0.8,5.2-2.3
			s2.1-3.8,2.1-6.8c0-2.9-0.7-5.1-2.1-6.7s-3.2-2.3-5.2-2.3c-2.1,0-3.8,0.8-5.3,2.3S2996,621.4,2996,624.3z"/>
		<path class="st0" d="M3033.1,598.3v15c2.6-2.9,5.6-4.4,9.2-4.4c1.8,0,3.5,0.3,5,1c1.5,0.7,2.6,1.5,3.3,2.6c0.7,1,1.3,2.2,1.5,3.5
			c0.3,1.3,0.4,3.2,0.4,5.9v17.3h-8v-15.6c0-3.1-0.2-5.1-0.5-5.9c-0.3-0.8-0.8-1.5-1.6-2c-0.8-0.5-1.7-0.7-2.9-0.7
			c-1.3,0-2.5,0.3-3.5,0.9s-1.8,1.6-2.3,2.9s-0.7,3.1-0.7,5.6v14.8h-8v-40.8H3033.1z"/>
		<path class="st0" d="M3066.6,618.5l-7.2-1.3c0.8-2.9,2.2-5,4.2-6.3s4.9-2.1,8.9-2.1c3.6,0,6.2,0.4,7.9,1.2c1.7,0.8,3,1.9,3.7,3.1
			s1.1,3.6,1.1,7l-0.1,9.1c0,2.6,0.1,4.5,0.4,5.7c0.3,1.2,0.7,2.6,1.4,4h-7.9c-0.2-0.5-0.5-1.3-0.8-2.3c-0.1-0.5-0.2-0.8-0.3-0.9
			c-1.4,1.3-2.8,2.3-4.4,2.9c-1.6,0.6-3.2,1-5,1c-3.1,0-5.5-0.8-7.3-2.5s-2.7-3.7-2.7-6.3c0-1.7,0.4-3.2,1.2-4.5
			c0.8-1.3,2-2.3,3.4-3c1.5-0.7,3.6-1.3,6.3-1.8c3.7-0.7,6.3-1.3,7.7-1.9V619c0-1.5-0.4-2.6-1.1-3.2c-0.8-0.6-2.2-1-4.3-1
			c-1.4,0-2.5,0.3-3.3,0.8C3067.8,616.2,3067.1,617.2,3066.6,618.5z M3077.3,624.9c-1,0.3-2.6,0.7-4.9,1.2c-2.2,0.5-3.7,0.9-4.3,1.4
			c-1,0.7-1.6,1.6-1.6,2.8c0,1.1,0.4,2,1.2,2.8c0.8,0.8,1.9,1.2,3.2,1.2c1.4,0,2.8-0.5,4.1-1.4c1-0.7,1.6-1.6,1.9-2.6
			c0.2-0.7,0.3-1.9,0.3-3.8V624.9z"/>
		<path class="st0" d="M3100.6,639.1h-8v-29.6h7.4v4.2c1.3-2,2.4-3.3,3.4-3.9s2.2-0.9,3.4-0.9c1.8,0,3.6,0.5,5.3,1.5l-2.5,6.8
			c-1.3-0.9-2.6-1.3-3.7-1.3c-1.1,0-2.1,0.3-2.8,0.9c-0.8,0.6-1.4,1.7-1.8,3.3c-0.4,1.6-0.7,4.9-0.7,9.9V639.1z"/>
	</g>
	<g>
		<path class="st0" d="M2894.3,695.3v-22.9h9.9c2.5,0,4.3,0.2,5.4,0.6c1.1,0.4,2,1.1,2.7,2.2c0.7,1.1,1,2.3,1,3.6
			c0,1.7-0.5,3.1-1.5,4.3c-1,1.1-2.6,1.8-4.6,2.1c1,0.6,1.9,1.2,2.5,1.9c0.7,0.7,1.6,1.9,2.7,3.7l2.9,4.5h-5.6l-3.4-5
			c-1.2-1.8-2-2.9-2.5-3.4c-0.4-0.5-0.9-0.8-1.4-1c-0.5-0.2-1.3-0.3-2.4-0.3h-1v9.6H2894.3z M2899,682.1h3.5c2.3,0,3.7-0.1,4.2-0.3
			c0.6-0.2,1-0.5,1.3-1c0.3-0.5,0.5-1,0.5-1.7c0-0.8-0.2-1.4-0.6-1.9c-0.4-0.5-1-0.8-1.8-0.9c-0.4-0.1-1.5-0.1-3.4-0.1h-3.7V682.1z"
			/>
		<path class="st0" d="M2917.9,695.3v-4.4h4.5v4.4H2917.9z"/>
		<path class="st0" d="M2926.8,695.3v-22.9h4.7v22.9H2926.8z"/>
		<path class="st0" d="M2936,695.3v-4.4h4.5v4.4H2936z"/>
		<path class="st0" d="M2954.1,672.4h8.6c1.9,0,3.4,0.1,4.4,0.4c1.4,0.4,2.5,1.1,3.5,2.1c1,1,1.7,2.2,2.2,3.7
			c0.5,1.5,0.8,3.3,0.8,5.4c0,1.9-0.2,3.5-0.7,4.9c-0.6,1.7-1.4,3-2.5,4c-0.8,0.8-1.9,1.4-3.3,1.8c-1,0.3-2.4,0.5-4.2,0.5h-8.9
			V672.4z M2958.8,676.3v15.2h3.5c1.3,0,2.3-0.1,2.9-0.2c0.8-0.2,1.4-0.5,1.9-1c0.5-0.4,0.9-1.2,1.2-2.2c0.3-1,0.5-2.4,0.5-4.2
			c0-1.8-0.2-3.1-0.5-4.1c-0.3-0.9-0.8-1.7-1.3-2.2s-1.3-0.9-2.2-1.1c-0.7-0.1-1.9-0.2-3.9-0.2H2958.8z"/>
		<path class="st0" d="M2977.7,676.5v-4.1h4.5v4.1H2977.7z M2977.7,695.3v-16.6h4.5v16.6H2977.7z"/>
		<path class="st0" d="M2985.2,690.6l4.5-0.7c0.2,0.9,0.6,1.5,1.2,1.9c0.6,0.4,1.4,0.7,2.5,0.7c1.2,0,2-0.2,2.6-0.6
			c0.4-0.3,0.6-0.7,0.6-1.2c0-0.3-0.1-0.6-0.3-0.8c-0.2-0.2-0.7-0.4-1.5-0.6c-3.6-0.8-5.9-1.5-6.9-2.1c-1.3-0.9-2-2.1-2-3.7
			c0-1.4,0.6-2.6,1.7-3.6c1.2-1,3-1.5,5.4-1.5c2.3,0,4,0.4,5.2,1.1c1.1,0.7,1.9,1.8,2.3,3.3l-4.2,0.8c-0.2-0.6-0.5-1.1-1-1.5
			s-1.2-0.5-2.2-0.5c-1.2,0-2,0.2-2.5,0.5c-0.3,0.2-0.5,0.5-0.5,0.9c0,0.3,0.1,0.6,0.4,0.8c0.4,0.3,1.8,0.7,4.2,1.2s4,1.2,5,2
			c0.9,0.8,1.4,1.9,1.4,3.3c0,1.5-0.6,2.8-1.9,3.9s-3.2,1.6-5.8,1.6c-2.3,0-4.1-0.5-5.5-1.4C2986.5,693.4,2985.6,692.2,2985.2,690.6
			z"/>
		<path class="st0" d="M3012.7,678.7v3.5h-3.1v6.7c0,1.4,0,2.1,0.1,2.4c0.1,0.2,0.2,0.4,0.4,0.6c0.2,0.1,0.5,0.2,0.8,0.2
			c0.4,0,1-0.1,1.8-0.4l0.4,3.4c-1,0.4-2.2,0.7-3.5,0.7c-0.8,0-1.5-0.1-2.2-0.4c-0.6-0.3-1.1-0.6-1.4-1s-0.5-1-0.6-1.7
			c-0.1-0.5-0.1-1.5-0.1-3.1v-7.2h-2.1v-3.5h2.1v-3.3l4.5-2.6v5.9H3012.7z"/>
		<path class="st0" d="M3015.8,695.3v-4.4h4.5v4.4H3015.8z"/>
		<path class="st0" d="M3032.8,689.2l4.3-0.5c0.1,1.1,0.5,1.9,1.1,2.5c0.6,0.6,1.3,0.9,2.2,0.9c0.9,0,1.7-0.3,2.3-1
			c0.6-0.7,0.9-1.6,0.9-2.8c0-1.1-0.3-2-0.9-2.6c-0.6-0.6-1.3-1-2.2-1c-0.6,0-1.3,0.1-2.1,0.3l0.5-3.6c1.2,0,2.1-0.2,2.8-0.8
			s1-1.3,1-2.2c0-0.8-0.2-1.4-0.7-1.8c-0.5-0.5-1.1-0.7-1.9-0.7c-0.8,0-1.4,0.3-2,0.8c-0.5,0.5-0.9,1.3-1,2.3l-4.1-0.7
			c0.3-1.4,0.7-2.5,1.3-3.3c0.6-0.8,1.4-1.5,2.4-2c1-0.5,2.2-0.7,3.5-0.7c2.2,0,4,0.7,5.3,2.1c1.1,1.1,1.6,2.4,1.6,3.8
			c0,2-1.1,3.6-3.4,4.8c1.3,0.3,2.4,0.9,3.2,1.9c0.8,1,1.2,2.2,1.2,3.5c0,2-0.7,3.7-2.2,5.1c-1.5,1.4-3.4,2.1-5.6,2.1
			c-2.1,0-3.9-0.6-5.3-1.8C3033.8,692.7,3033,691.2,3032.8,689.2z"/>
		<path class="st0" d="M3062.5,695.3h-4.5v-16.5c-1.6,1.5-3.6,2.6-5.8,3.3v-4c1.2-0.4,2.4-1.1,3.8-2.1c1.4-1,2.3-2.3,2.8-3.7h3.6
			V695.3z"/>
		<path class="st0" d="M3069.3,690l4.3-0.5c0.1,0.9,0.4,1.5,0.8,1.9c0.4,0.4,1,0.6,1.8,0.6c0.9,0,1.7-0.4,2.4-1.2
			c0.6-0.8,1.1-2.6,1.2-5.2c-1.1,1.3-2.5,1.9-4.2,1.9c-1.8,0-3.4-0.7-4.8-2.1c-1.3-1.4-2-3.2-2-5.4c0-2.3,0.7-4.2,2.1-5.6
			c1.4-1.4,3.2-2.1,5.4-2.1c2.4,0,4.3,0.9,5.8,2.7c1.5,1.8,2.3,4.8,2.3,8.9c0,4.2-0.8,7.2-2.4,9.1c-1.6,1.9-3.6,2.8-6.2,2.8
			c-1.8,0-3.3-0.5-4.4-1.4S3069.7,691.9,3069.3,690z M3079.5,680.4c0-1.4-0.3-2.5-1-3.3c-0.7-0.8-1.4-1.2-2.3-1.2
			c-0.8,0-1.5,0.3-2.1,1c-0.5,0.6-0.8,1.7-0.8,3.1c0,1.5,0.3,2.6,0.9,3.3c0.6,0.7,1.3,1,2.2,1c0.9,0,1.6-0.3,2.2-1
			C3079.2,682.7,3079.5,681.7,3079.5,680.4z"/>
		<path class="st0" d="M3102.5,691.2v4.1h-15.7c0.2-1.5,0.7-3,1.5-4.4c0.8-1.4,2.5-3.2,5-5.5c2-1.8,3.3-3.1,3.7-3.8
			c0.6-0.9,0.9-1.8,0.9-2.7c0-1-0.3-1.7-0.8-2.3c-0.5-0.5-1.3-0.8-2.2-0.8c-0.9,0-1.7,0.3-2.2,0.8c-0.6,0.6-0.9,1.5-1,2.8l-4.5-0.4
			c0.3-2.4,1.1-4.2,2.5-5.2c1.4-1.1,3.2-1.6,5.3-1.6c2.3,0,4.1,0.6,5.4,1.8c1.3,1.2,2,2.7,2,4.5c0,1-0.2,2-0.6,2.9
			c-0.4,0.9-1,1.9-1.8,2.9c-0.5,0.7-1.5,1.7-2.9,2.9c-1.4,1.3-2.3,2.1-2.7,2.5c-0.4,0.4-0.7,0.8-0.9,1.2H3102.5z"/>
	</g>
	<g>
		<defs>
			<rect id="SVGID_5_" x="3120.6" y="487.8" width="209.1" height="248"/>
		</defs>
		<clipPath id="SVGID_6_">
			<use xlink:href="#SVGID_5_"  style="overflow:visible;"/>
		</clipPath>
		<g class="st1">
			<g>
				<defs>
					<rect id="SVGID_7_" x="2548.3" y="454" width="1537.7" height="281.8"/>
				</defs>
				<clipPath id="SVGID_8_">
					<use xlink:href="#SVGID_7_"  style="overflow:visible;"/>
				</clipPath>
				<g style="clip-path:url(#SVGID_8_);">
					
						<image style="overflow:visible;" width="1251" height="229" xlink:href="3DFCDF53.png"  transform="matrix(1.2292 0 0 1.2306 2548.2881 454.0192)">
					</image>
				</g>
			</g>
		</g>
	</g>
</g>
<g>
	<g>
		<path class="st2" d="M2588.6-599.8v-81.1h35.4c8.9,0,15.4,0.7,19.4,2.2c4,1.5,7.3,4,9.7,7.8c2.4,3.7,3.6,8,3.6,12.8
			c0,6.1-1.8,11.1-5.5,15.1c-3.7,4-9.2,6.5-16.5,7.5c3.6,2.1,6.6,4.3,9,6.8c2.4,2.5,5.6,6.9,9.6,13.2l10.2,15.8h-20.1l-12.2-17.6
			c-4.3-6.3-7.3-10.3-8.9-11.9c-1.6-1.6-3.3-2.8-5.1-3.4c-1.8-0.6-4.6-0.9-8.5-0.9h-3.4v33.8H2588.6z M2605.4-646.6h12.5
			c8.1,0,13.1-0.3,15.1-1c2-0.7,3.6-1.8,4.7-3.4c1.1-1.6,1.7-3.7,1.7-6.1c0-2.7-0.7-4.9-2.2-6.6c-1.5-1.7-3.6-2.7-6.3-3.2
			c-1.4-0.2-5.5-0.3-12.3-0.3h-13.1V-646.6z"/>
		<path class="st2" d="M2668.8-630c0-5.2,1.3-10.2,3.9-15c2.6-4.8,6.3-8.5,11.1-11.1c4.8-2.5,10.2-3.8,16.1-3.8
			c9.1,0,16.6,2.9,22.5,8.7c5.8,5.8,8.8,13.1,8.8,21.9c0,8.9-2.9,16.3-8.8,22.1c-5.9,5.8-13.3,8.8-22.3,8.8
			c-5.5,0-10.8-1.2-15.8-3.7c-5-2.4-8.8-6-11.5-10.7C2670.1-617.6,2668.8-623.3,2668.8-630z M2685.2-629.2c0,5.8,1.4,10.3,4.3,13.4
			c2.8,3.1,6.4,4.6,10.5,4.6c4.2,0,7.7-1.5,10.5-4.6c2.8-3.1,4.2-7.6,4.2-13.5c0-5.8-1.4-10.2-4.2-13.3c-2.8-3.1-6.3-4.6-10.5-4.6
			c-4.2,0-7.7,1.5-10.5,4.6C2686.6-639.5,2685.2-635,2685.2-629.2z"/>
		<path class="st2" d="M2771.4-658.6v12.4h-10.9v23.7c0,4.8,0.1,7.6,0.3,8.4c0.2,0.8,0.7,1.4,1.4,2c0.7,0.5,1.6,0.8,2.7,0.8
			c1.5,0,3.6-0.5,6.4-1.5l1.4,12.1c-3.7,1.5-7.9,2.3-12.6,2.3c-2.9,0-5.5-0.5-7.8-1.4c-2.3-0.9-4-2.2-5.1-3.7s-1.8-3.5-2.2-6.1
			c-0.3-1.8-0.5-5.5-0.5-11v-25.6h-7.3v-12.4h7.3v-11.7l16-9.1v20.7H2771.4z"/>
		<path class="st2" d="M2794.5-640.7l-14.5-2.5c1.6-5.7,4.4-9.9,8.4-12.6c4-2.7,9.9-4.1,17.8-4.1c7.1,0,12.4,0.8,15.9,2.5
			c3.5,1.6,5.9,3.7,7.4,6.2c1.4,2.5,2.1,7.2,2.1,13.9l-0.2,18.1c0,5.2,0.3,9,0.8,11.4c0.5,2.5,1.5,5.1,2.9,7.9h-15.8
			c-0.4-1-0.9-2.6-1.5-4.6c-0.3-0.9-0.5-1.5-0.6-1.8c-2.7,2.6-5.7,4.5-8.8,5.8c-3.1,1.3-6.4,1.9-10,1.9c-6.2,0-11.1-1.6-14.7-4.9
			c-3.6-3.3-5.4-7.4-5.4-12.4c0-3.3,0.8-6.3,2.4-8.9c1.6-2.6,3.9-4.6,6.9-6c2.9-1.4,7.2-2.6,12.7-3.6c7.5-1.4,12.6-2.6,15.5-3.8
			v-1.5c0-3-0.8-5.1-2.3-6.4c-1.5-1.3-4.4-1.9-8.6-1.9c-2.8,0-5.1,0.5-6.7,1.6C2796.7-645.3,2795.4-643.4,2794.5-640.7z M2815.8-628
			c-2,0.7-5.3,1.5-9.7,2.4c-4.4,0.9-7.3,1.8-8.7,2.7c-2.1,1.4-3.1,3.3-3.1,5.5c0,2.2,0.8,4.1,2.5,5.6c1.7,1.6,3.8,2.4,6.4,2.4
			c2.9,0,5.6-0.9,8.2-2.8c1.9-1.4,3.2-3.1,3.8-5.1c0.4-1.3,0.6-3.9,0.6-7.6V-628z"/>
		<path class="st2" d="M2862.6-599.8h-16v-58.7h14.8v8.4c2.5-3.9,4.8-6.5,6.9-7.8c2-1.3,4.3-1.9,6.9-1.9c3.6,0,7.1,1,10.5,2.9
			l-5,13.6c-2.7-1.7-5.2-2.5-7.5-2.5c-2.2,0-4.1,0.6-5.7,1.8c-1.6,1.2-2.8,3.4-3.7,6.5c-0.9,3.1-1.3,9.7-1.3,19.7V-599.8z"/>
		<path class="st2" d="M2885.1-658.6h17l14.5,41.7l14.1-41.7h16.6l-21.3,56.5l-3.8,10.2c-1.4,3.4-2.7,6-4,7.9
			c-1.3,1.8-2.7,3.3-4.4,4.4c-1.6,1.1-3.7,2-6.1,2.6c-2.4,0.6-5.1,0.9-8.2,0.9c-3.1,0-6.1-0.3-9-0.9l-1.4-12.2
			c2.5,0.5,4.8,0.7,6.8,0.7c3.7,0,6.5-1.1,8.2-3.2c1.8-2.1,3.1-4.8,4.1-8.1L2885.1-658.6z"/>
	</g>
	<g>
		<path class="st3" d="M2374.2-571.3h16.6c3.3,0,5.7,0.1,7.4,0.4c1.6,0.3,3.1,0.8,4.3,1.7c1.3,0.9,2.3,2,3.2,3.4
			c0.9,1.4,1.3,3,1.3,4.8c0,1.9-0.5,3.7-1.6,5.3s-2.5,2.8-4.3,3.6c2.5,0.7,4.5,2,5.8,3.7s2,3.8,2,6.2c0,1.9-0.4,3.7-1.3,5.4
			c-0.9,1.8-2.1,3.2-3.6,4.2c-1.5,1-3.4,1.7-5.6,1.9c-1.4,0.1-4.8,0.2-10.1,0.3h-14.2V-571.3z M2382.6-564.5v9.4h5.5
			c3.3,0,5.3,0,6.1-0.1c1.4-0.2,2.6-0.7,3.4-1.5c0.8-0.8,1.2-1.9,1.2-3.2c0-1.3-0.4-2.3-1.1-3.1c-0.7-0.8-1.8-1.3-3.2-1.4
			c-0.8-0.1-3.2-0.1-7.2-0.1H2382.6z M2382.6-548.3v10.9h7.8c3,0,4.9-0.1,5.8-0.2c1.2-0.2,2.3-0.8,3.1-1.6c0.8-0.9,1.2-2,1.2-3.5
			c0-1.2-0.3-2.3-0.9-3.1c-0.6-0.9-1.5-1.5-2.6-1.9c-1.1-0.4-3.6-0.6-7.5-0.6H2382.6z"/>
		<path class="st3" d="M2422-551l-7.2-1.3c0.8-2.9,2.2-5,4.2-6.3s4.9-2.1,8.9-2.1c3.6,0,6.2,0.4,7.9,1.2c1.7,0.8,3,1.9,3.7,3.1
			s1.1,3.6,1.1,7l-0.1,9.1c0,2.6,0.1,4.5,0.4,5.7c0.3,1.2,0.7,2.6,1.4,4h-7.9c-0.2-0.5-0.5-1.3-0.8-2.3c-0.1-0.5-0.2-0.8-0.3-0.9
			c-1.4,1.3-2.8,2.3-4.4,2.9c-1.6,0.6-3.2,1-5,1c-3.1,0-5.5-0.8-7.3-2.5s-2.7-3.7-2.7-6.3c0-1.7,0.4-3.2,1.2-4.5
			c0.8-1.3,2-2.3,3.4-3c1.5-0.7,3.6-1.3,6.3-1.8c3.7-0.7,6.3-1.3,7.7-1.9v-0.8c0-1.5-0.4-2.6-1.1-3.2c-0.8-0.6-2.2-1-4.3-1
			c-1.4,0-2.5,0.3-3.3,0.8C2423.2-553.4,2422.5-552.4,2422-551z M2432.7-544.7c-1,0.3-2.6,0.7-4.9,1.2c-2.2,0.5-3.7,0.9-4.3,1.4
			c-1,0.7-1.6,1.6-1.6,2.8c0,1.1,0.4,2,1.2,2.8c0.8,0.8,1.9,1.2,3.2,1.2c1.4,0,2.8-0.5,4.1-1.4c1-0.7,1.6-1.6,1.9-2.6
			c0.2-0.7,0.3-1.9,0.3-3.8V-544.7z"/>
		<path class="st3" d="M2475.8-530.5h-8v-15.1c0-3.2-0.2-5.3-0.5-6.2c-0.3-0.9-0.9-1.7-1.7-2.2c-0.8-0.5-1.7-0.8-2.8-0.8
			c-1.4,0-2.6,0.4-3.7,1.1c-1.1,0.7-1.8,1.7-2.3,3c-0.4,1.2-0.6,3.5-0.6,6.8v13.4h-8v-29.6h7.4v4.3c2.6-3.3,5.9-5,9.9-5
			c1.8,0,3.4,0.3,4.8,0.9s2.6,1.4,3.3,2.4c0.7,1,1.3,2.1,1.6,3.3s0.4,3,0.4,5.3V-530.5z"/>
		<path class="st3" d="M2483.2-528.5l9.1,1.1c0.2,1,0.5,1.8,1,2.1c0.8,0.6,1.9,0.8,3.6,0.8c2.1,0,3.6-0.3,4.7-0.9
			c0.7-0.4,1.2-1.1,1.6-2c0.2-0.6,0.4-1.8,0.4-3.6v-4.3c-2.4,3.2-5.4,4.8-9,4.8c-4,0-7.3-1.7-9.6-5c-1.9-2.7-2.8-6-2.8-9.9
			c0-5,1.2-8.7,3.6-11.4c2.4-2.6,5.5-3.9,9.1-3.9c3.7,0,6.8,1.6,9.2,4.8v-4.1h7.5v26.5c0,3.5-0.3,6.1-0.9,7.8s-1.4,3.1-2.5,4.1
			c-1.1,1-2.5,1.8-4.2,2.3c-1.8,0.6-4,0.8-6.7,0.8c-5.1,0-8.7-0.9-10.9-2.6c-2.1-1.7-3.2-3.9-3.2-6.5
			C2483.1-527.9,2483.2-528.2,2483.2-528.5z M2490.3-545.9c0,3.1,0.6,5.4,1.9,6.9c1.2,1.5,2.8,2.2,4.6,2.2c1.9,0,3.6-0.7,4.9-2.2
			c1.3-1.5,2-3.7,2-6.6c0-3.1-0.6-5.3-1.9-6.8c-1.3-1.5-2.9-2.2-4.9-2.2c-1.9,0-3.5,0.7-4.7,2.2
			C2490.9-551.1,2490.3-548.9,2490.3-545.9z"/>
		<path class="st3" d="M2525.4-551l-7.2-1.3c0.8-2.9,2.2-5,4.2-6.3s4.9-2.1,8.9-2.1c3.6,0,6.2,0.4,7.9,1.2c1.7,0.8,3,1.9,3.7,3.1
			s1.1,3.6,1.1,7l-0.1,9.1c0,2.6,0.1,4.5,0.4,5.7c0.3,1.2,0.7,2.6,1.4,4h-7.9c-0.2-0.5-0.5-1.3-0.8-2.3c-0.1-0.5-0.2-0.8-0.3-0.9
			c-1.4,1.3-2.8,2.3-4.4,2.9c-1.6,0.6-3.2,1-5,1c-3.1,0-5.5-0.8-7.3-2.5s-2.7-3.7-2.7-6.3c0-1.7,0.4-3.2,1.2-4.5
			c0.8-1.3,2-2.3,3.4-3c1.5-0.7,3.6-1.3,6.3-1.8c3.7-0.7,6.3-1.3,7.7-1.9v-0.8c0-1.5-0.4-2.6-1.1-3.2c-0.8-0.6-2.2-1-4.3-1
			c-1.4,0-2.5,0.3-3.3,0.8C2526.5-553.4,2525.9-552.4,2525.4-551z M2536-544.7c-1,0.3-2.6,0.7-4.9,1.2c-2.2,0.5-3.7,0.9-4.3,1.4
			c-1,0.7-1.6,1.6-1.6,2.8c0,1.1,0.4,2,1.2,2.8c0.8,0.8,1.9,1.2,3.2,1.2c1.4,0,2.8-0.5,4.1-1.4c1-0.7,1.6-1.6,1.9-2.6
			c0.2-0.7,0.3-1.9,0.3-3.8V-544.7z"/>
		<path class="st3" d="M2551.7-530.5v-40.8h8v40.8H2551.7z"/>
		<path class="st3" d="M2566-545.7c0-2.6,0.7-5.1,2-7.5s3.2-4.3,5.5-5.6c2.4-1.3,5.1-1.9,8-1.9c4.6,0,8.3,1.5,11.2,4.4
			c2.9,2.9,4.4,6.6,4.4,11c0,4.5-1.5,8.2-4.4,11.1c-2.9,2.9-6.6,4.4-11.1,4.4c-2.8,0-5.4-0.6-7.9-1.8c-2.5-1.2-4.4-3-5.7-5.4
			C2566.7-539.4,2566-542.3,2566-545.7z M2574.2-545.3c0,2.9,0.7,5.2,2.1,6.7s3.2,2.3,5.3,2.3c2.1,0,3.8-0.8,5.2-2.3
			s2.1-3.8,2.1-6.8c0-2.9-0.7-5.1-2.1-6.7s-3.2-2.3-5.2-2.3c-2.1,0-3.8,0.8-5.3,2.3S2574.2-548.2,2574.2-545.3z"/>
		<path class="st3" d="M2611-530.5h-8v-29.6h7.4v4.2c1.3-2,2.4-3.3,3.4-3.9s2.2-0.9,3.4-0.9c1.8,0,3.6,0.5,5.3,1.5l-2.5,6.8
			c-1.3-0.9-2.6-1.3-3.7-1.3c-1.1,0-2.1,0.3-2.8,0.9c-0.8,0.6-1.4,1.7-1.8,3.3c-0.4,1.6-0.7,4.9-0.7,9.9V-530.5z"/>
		<path class="st3" d="M2643.5-539.9l7.9,1.3c-1,2.9-2.6,5-4.8,6.5s-5,2.2-8.3,2.2c-5.2,0-9.1-1.7-11.6-5c-2-2.7-3-6.1-3-10.2
			c0-4.9,1.3-8.7,3.9-11.5s5.9-4.2,9.9-4.2c4.5,0,8,1.5,10.6,4.4c2.6,2.9,3.8,7.4,3.7,13.3h-20c0.1,2.3,0.7,4.1,1.9,5.4
			c1.2,1.3,2.8,1.9,4.6,1.9c1.2,0,2.3-0.3,3.2-1S2643-538.4,2643.5-539.9z M2643.9-547.8c-0.1-2.3-0.7-4-1.8-5.2
			c-1.1-1.2-2.5-1.8-4.1-1.8c-1.7,0-3.2,0.6-4.3,1.9s-1.7,2.9-1.7,5.1H2643.9z"/>
		<path class="st3" d="M2693.9-545.5v-6.9h18.1v16.3c-1.8,1.7-4.3,3.1-7.6,4.4s-6.7,1.9-10.1,1.9c-4.4,0-8.1-0.9-11.4-2.7
			c-3.2-1.8-5.7-4.4-7.3-7.7c-1.6-3.3-2.4-7-2.4-10.9c0-4.2,0.9-8,2.7-11.3s4.5-5.8,8-7.6c2.7-1.4,6-2,10-2c5.2,0,9.2,1.1,12.1,3.2
			c2.9,2.1,4.8,5.1,5.6,8.8l-8.3,1.5c-0.6-2-1.7-3.6-3.3-4.7c-1.6-1.2-3.6-1.7-6.1-1.7c-3.7,0-6.6,1.1-8.8,3.4
			c-2.2,2.3-3.2,5.7-3.2,10.2c0,4.8,1.1,8.5,3.3,10.9c2.2,2.4,5.1,3.6,8.6,3.6c1.8,0,3.5-0.3,5.3-1c1.8-0.7,3.3-1.5,4.6-2.5v-5.2
			H2693.9z"/>
		<path class="st3" d="M2739.6-530.5v-4.4c-1.1,1.6-2.5,2.8-4.3,3.7c-1.8,0.9-3.7,1.4-5.7,1.4c-2,0-3.8-0.4-5.4-1.3
			c-1.6-0.9-2.8-2.1-3.5-3.7c-0.7-1.6-1.1-3.8-1.1-6.5v-18.7h8v13.6c0,4.2,0.1,6.7,0.4,7.6c0.3,0.9,0.8,1.7,1.6,2.2
			c0.8,0.5,1.8,0.8,3,0.8c1.4,0,2.6-0.4,3.7-1.1c1.1-0.7,1.8-1.6,2.2-2.7c0.4-1.1,0.6-3.7,0.6-8v-12.5h8v29.6H2739.6z"/>
		<path class="st3" d="M2755.2-530.5v-40.8h8v40.8H2755.2z"/>
		<path class="st3" d="M2770.8-560.1h7.4v4c2.6-3.1,5.8-4.7,9.4-4.7c1.9,0,3.6,0.4,5,1.2c1.4,0.8,2.6,2,3.5,3.5
			c1.3-1.6,2.8-2.8,4.3-3.5s3.2-1.2,4.9-1.2c2.2,0,4.1,0.4,5.6,1.3s2.7,2.2,3.4,3.9c0.5,1.3,0.8,3.3,0.8,6.1v18.9h-8v-16.9
			c0-2.9-0.3-4.8-0.8-5.7c-0.7-1.1-1.9-1.7-3.4-1.7c-1.1,0-2.2,0.3-3.2,1c-1,0.7-1.7,1.6-2.1,2.9c-0.4,1.3-0.7,3.3-0.7,6.1v14.2h-8
			v-16.2c0-2.9-0.1-4.7-0.4-5.6c-0.3-0.8-0.7-1.5-1.3-1.9c-0.6-0.4-1.4-0.6-2.4-0.6c-1.2,0-2.3,0.3-3.3,1s-1.7,1.6-2.1,2.8
			s-0.6,3.3-0.6,6.1v14.4h-8V-560.1z"/>
		<path class="st3" d="M2821.2-545.7c0-2.6,0.7-5.1,2-7.5s3.2-4.3,5.5-5.6c2.4-1.3,5.1-1.9,8-1.9c4.6,0,8.3,1.5,11.2,4.4
			c2.9,2.9,4.4,6.6,4.4,11c0,4.5-1.5,8.2-4.4,11.1c-2.9,2.9-6.6,4.4-11.1,4.4c-2.8,0-5.4-0.6-7.9-1.8c-2.5-1.2-4.4-3-5.7-5.4
			C2821.9-539.4,2821.2-542.3,2821.2-545.7z M2829.4-545.3c0,2.9,0.7,5.2,2.1,6.7s3.2,2.3,5.3,2.3c2.1,0,3.8-0.8,5.2-2.3
			s2.1-3.8,2.1-6.8c0-2.9-0.7-5.1-2.1-6.7s-3.2-2.3-5.2-2.3c-2.1,0-3.8,0.8-5.3,2.3S2829.4-548.2,2829.4-545.3z"/>
		<path class="st3" d="M2866.5-571.3v15c2.6-2.9,5.6-4.4,9.2-4.4c1.8,0,3.5,0.3,5,1c1.5,0.7,2.6,1.5,3.3,2.6c0.7,1,1.3,2.2,1.5,3.5
			c0.3,1.3,0.4,3.2,0.4,5.9v17.3h-8v-15.6c0-3.1-0.2-5.1-0.5-5.9c-0.3-0.8-0.8-1.5-1.6-2c-0.8-0.5-1.7-0.7-2.9-0.7
			c-1.3,0-2.5,0.3-3.5,0.9s-1.8,1.6-2.3,2.9s-0.7,3.1-0.7,5.6v14.8h-8v-40.8H2866.5z"/>
		<path class="st3" d="M2900-551l-7.2-1.3c0.8-2.9,2.2-5,4.2-6.3s4.9-2.1,8.9-2.1c3.6,0,6.2,0.4,7.9,1.2c1.7,0.8,3,1.9,3.7,3.1
			s1.1,3.6,1.1,7l-0.1,9.1c0,2.6,0.1,4.5,0.4,5.7c0.3,1.2,0.7,2.6,1.4,4h-7.9c-0.2-0.5-0.5-1.3-0.8-2.3c-0.1-0.5-0.2-0.8-0.3-0.9
			c-1.4,1.3-2.8,2.3-4.4,2.9c-1.6,0.6-3.2,1-5,1c-3.1,0-5.5-0.8-7.3-2.5s-2.7-3.7-2.7-6.3c0-1.7,0.4-3.2,1.2-4.5
			c0.8-1.3,2-2.3,3.4-3c1.5-0.7,3.6-1.3,6.3-1.8c3.7-0.7,6.3-1.3,7.7-1.9v-0.8c0-1.5-0.4-2.6-1.1-3.2c-0.8-0.6-2.2-1-4.3-1
			c-1.4,0-2.5,0.3-3.3,0.8C2901.2-553.4,2900.5-552.4,2900-551z M2910.7-544.7c-1,0.3-2.6,0.7-4.9,1.2c-2.2,0.5-3.7,0.9-4.3,1.4
			c-1,0.7-1.6,1.6-1.6,2.8c0,1.1,0.4,2,1.2,2.8c0.8,0.8,1.9,1.2,3.2,1.2c1.4,0,2.8-0.5,4.1-1.4c1-0.7,1.6-1.6,1.9-2.6
			c0.2-0.7,0.3-1.9,0.3-3.8V-544.7z"/>
		<path class="st3" d="M2934-530.5h-8v-29.6h7.4v4.2c1.3-2,2.4-3.3,3.4-3.9s2.2-0.9,3.4-0.9c1.8,0,3.6,0.5,5.3,1.5l-2.5,6.8
			c-1.3-0.9-2.6-1.3-3.7-1.3c-1.1,0-2.1,0.3-2.8,0.9c-0.8,0.6-1.4,1.7-1.8,3.3c-0.4,1.6-0.7,4.9-0.7,9.9V-530.5z"/>
	</g>
	<g>
		<path class="st3" d="M2727.7-474.3v-22.9h9.9c2.5,0,4.3,0.2,5.4,0.6c1.1,0.4,2,1.1,2.7,2.2c0.7,1.1,1,2.3,1,3.6
			c0,1.7-0.5,3.1-1.5,4.3c-1,1.1-2.6,1.8-4.6,2.1c1,0.6,1.9,1.2,2.5,1.9c0.7,0.7,1.6,1.9,2.7,3.7l2.9,4.5h-5.6l-3.4-5
			c-1.2-1.8-2-2.9-2.5-3.4c-0.4-0.5-0.9-0.8-1.4-1c-0.5-0.2-1.3-0.3-2.4-0.3h-1v9.6H2727.7z M2732.5-487.5h3.5
			c2.3,0,3.7-0.1,4.2-0.3c0.6-0.2,1-0.5,1.3-1c0.3-0.5,0.5-1,0.5-1.7c0-0.8-0.2-1.4-0.6-1.9c-0.4-0.5-1-0.8-1.8-0.9
			c-0.4-0.1-1.5-0.1-3.4-0.1h-3.7V-487.5z"/>
		<path class="st3" d="M2751.3-474.3v-4.4h4.5v4.4H2751.3z"/>
		<path class="st3" d="M2760.2-474.3v-22.9h4.7v22.9H2760.2z"/>
		<path class="st3" d="M2769.4-474.3v-4.4h4.5v4.4H2769.4z"/>
		<path class="st3" d="M2787.5-497.2h8.6c1.9,0,3.4,0.1,4.4,0.4c1.4,0.4,2.5,1.1,3.5,2.1c1,1,1.7,2.2,2.2,3.7
			c0.5,1.5,0.8,3.3,0.8,5.4c0,1.9-0.2,3.5-0.7,4.9c-0.6,1.7-1.4,3-2.5,4c-0.8,0.8-1.9,1.4-3.3,1.8c-1,0.3-2.4,0.5-4.2,0.5h-8.9
			V-497.2z M2792.3-493.3v15.2h3.5c1.3,0,2.3-0.1,2.9-0.2c0.8-0.2,1.4-0.5,1.9-1c0.5-0.4,0.9-1.2,1.2-2.2c0.3-1,0.5-2.4,0.5-4.2
			c0-1.8-0.2-3.1-0.5-4.1c-0.3-0.9-0.8-1.7-1.3-2.2s-1.3-0.9-2.2-1.1c-0.7-0.1-1.9-0.2-3.9-0.2H2792.3z"/>
		<path class="st3" d="M2811.1-493.1v-4.1h4.5v4.1H2811.1z M2811.1-474.3v-16.6h4.5v16.6H2811.1z"/>
		<path class="st3" d="M2818.6-479l4.5-0.7c0.2,0.9,0.6,1.5,1.2,1.9c0.6,0.4,1.4,0.7,2.5,0.7c1.2,0,2-0.2,2.6-0.6
			c0.4-0.3,0.6-0.7,0.6-1.2c0-0.3-0.1-0.6-0.3-0.8c-0.2-0.2-0.7-0.4-1.5-0.6c-3.6-0.8-5.9-1.5-6.9-2.1c-1.3-0.9-2-2.1-2-3.7
			c0-1.4,0.6-2.6,1.7-3.6c1.2-1,3-1.5,5.4-1.5c2.3,0,4,0.4,5.2,1.1c1.1,0.7,1.9,1.8,2.3,3.3l-4.2,0.8c-0.2-0.6-0.5-1.1-1-1.5
			s-1.2-0.5-2.2-0.5c-1.2,0-2,0.2-2.5,0.5c-0.3,0.2-0.5,0.5-0.5,0.9c0,0.3,0.1,0.6,0.4,0.8c0.4,0.3,1.8,0.7,4.2,1.2s4,1.2,5,2
			c0.9,0.8,1.4,1.9,1.4,3.3c0,1.5-0.6,2.8-1.9,3.9s-3.2,1.6-5.8,1.6c-2.3,0-4.1-0.5-5.5-1.4C2819.9-476.2,2819-477.4,2818.6-479z"/>
		<path class="st3" d="M2846.1-490.9v3.5h-3.1v6.7c0,1.4,0,2.1,0.1,2.4c0.1,0.2,0.2,0.4,0.4,0.6c0.2,0.1,0.5,0.2,0.8,0.2
			c0.4,0,1-0.1,1.8-0.4l0.4,3.4c-1,0.4-2.2,0.7-3.5,0.7c-0.8,0-1.5-0.1-2.2-0.4c-0.6-0.3-1.1-0.6-1.4-1s-0.5-1-0.6-1.7
			c-0.1-0.5-0.1-1.5-0.1-3.1v-7.2h-2.1v-3.5h2.1v-3.3l4.5-2.6v5.9H2846.1z"/>
		<path class="st3" d="M2849.2-474.3v-4.4h4.5v4.4H2849.2z"/>
		<path class="st3" d="M2866.2-480.3l4.3-0.5c0.1,1.1,0.5,1.9,1.1,2.5c0.6,0.6,1.3,0.9,2.2,0.9c0.9,0,1.7-0.3,2.3-1
			c0.6-0.7,0.9-1.6,0.9-2.8c0-1.1-0.3-2-0.9-2.6c-0.6-0.6-1.3-1-2.2-1c-0.6,0-1.3,0.1-2.1,0.3l0.5-3.6c1.2,0,2.1-0.2,2.8-0.8
			s1-1.3,1-2.2c0-0.8-0.2-1.4-0.7-1.8c-0.5-0.5-1.1-0.7-1.9-0.7c-0.8,0-1.4,0.3-2,0.8c-0.5,0.5-0.9,1.3-1,2.3l-4.1-0.7
			c0.3-1.4,0.7-2.5,1.3-3.3c0.6-0.8,1.4-1.5,2.4-2c1-0.5,2.2-0.7,3.5-0.7c2.2,0,4,0.7,5.3,2.1c1.1,1.1,1.6,2.4,1.6,3.8
			c0,2-1.1,3.6-3.4,4.8c1.3,0.3,2.4,0.9,3.2,1.9c0.8,1,1.2,2.2,1.2,3.5c0,2-0.7,3.7-2.2,5.1c-1.5,1.4-3.4,2.1-5.6,2.1
			c-2.1,0-3.9-0.6-5.3-1.8C2867.2-476.9,2866.4-478.4,2866.2-480.3z"/>
		<path class="st3" d="M2896-474.3h-4.5v-16.5c-1.6,1.5-3.6,2.6-5.8,3.3v-4c1.2-0.4,2.4-1.1,3.8-2.1c1.4-1,2.3-2.3,2.8-3.7h3.6
			V-474.3z"/>
		<path class="st3" d="M2902.7-479.6l4.3-0.5c0.1,0.9,0.4,1.5,0.8,1.9c0.4,0.4,1,0.6,1.8,0.6c0.9,0,1.7-0.4,2.4-1.2
			c0.6-0.8,1.1-2.6,1.2-5.2c-1.1,1.3-2.5,1.9-4.2,1.9c-1.8,0-3.4-0.7-4.8-2.1c-1.3-1.4-2-3.2-2-5.4c0-2.3,0.7-4.2,2.1-5.6
			c1.4-1.4,3.2-2.1,5.4-2.1c2.4,0,4.3,0.9,5.8,2.7c1.5,1.8,2.3,4.8,2.3,8.9c0,4.2-0.8,7.2-2.4,9.1c-1.6,1.9-3.6,2.8-6.2,2.8
			c-1.8,0-3.3-0.5-4.4-1.4S2903.1-477.7,2902.7-479.6z M2912.9-489.2c0-1.4-0.3-2.5-1-3.3c-0.7-0.8-1.4-1.2-2.3-1.2
			c-0.8,0-1.5,0.3-2.1,1c-0.5,0.6-0.8,1.7-0.8,3.1c0,1.5,0.3,2.6,0.9,3.3c0.6,0.7,1.3,1,2.2,1c0.9,0,1.6-0.3,2.2-1
			C2912.6-486.9,2912.9-487.9,2912.9-489.2z"/>
		<path class="st3" d="M2935.9-478.3v4.1h-15.7c0.2-1.5,0.7-3,1.5-4.4c0.8-1.4,2.5-3.2,5-5.5c2-1.8,3.3-3.1,3.7-3.8
			c0.6-0.9,0.9-1.8,0.9-2.7c0-1-0.3-1.7-0.8-2.3c-0.5-0.5-1.3-0.8-2.2-0.8c-0.9,0-1.7,0.3-2.2,0.8c-0.6,0.6-0.9,1.5-1,2.8l-4.5-0.4
			c0.3-2.4,1.1-4.2,2.5-5.2c1.4-1.1,3.2-1.6,5.3-1.6c2.3,0,4.1,0.6,5.4,1.8c1.3,1.2,2,2.7,2,4.5c0,1-0.2,2-0.6,2.9
			c-0.4,0.9-1,1.9-1.8,2.9c-0.5,0.7-1.5,1.7-2.9,2.9c-1.4,1.3-2.3,2.1-2.7,2.5c-0.4,0.4-0.7,0.8-0.9,1.2H2935.9z"/>
	</g>
	<g>
		<defs>
			<rect id="SVGID_9_" x="2954" y="-681.8" width="209.1" height="248"/>
		</defs>
		<clipPath id="SVGID_10_">
			<use xlink:href="#SVGID_9_"  style="overflow:visible;"/>
		</clipPath>
		<g class="st4">
			<g>
				<defs>
					<rect id="SVGID_11_" x="2381.7" y="-715.6" width="1537.7" height="281.8"/>
				</defs>
				<clipPath id="SVGID_12_">
					<use xlink:href="#SVGID_11_"  style="overflow:visible;"/>
				</clipPath>
				<g style="clip-path:url(#SVGID_12_);">
					
						<image style="overflow:visible;" width="1251" height="229" xlink:href="3DFCDF55.png"  transform="matrix(1.2292 0 0 1.2306 2381.6943 -715.556)">
					</image>
				</g>
			</g>
		</g>
	</g>
</g>
<g>
	<g>
		<defs>
			<rect id="SVGID_13_" x="3266.9" y="451.1" width="662.2" height="280.8"/>
		</defs>
		<clipPath id="SVGID_14_">
			<use xlink:href="#SVGID_13_"  style="overflow:visible;"/>
		</clipPath>
		<g class="st5">
			<g>
				<path class="st0" d="M3441.7,552.9c0-2,0-4.1,0-6.1c0.5-0.1,0.5-0.5,0.5-0.9c0.1-1.9,0.3-3.8,0.3-5.8c0-14.4,0-28.9,0-43.3
					c0-2.5,0.7-3.4,3.2-3.5c5.1-0.1,10.1-0.6,15.2-0.9c5.3-0.4,10.7-0.2,16,0.6c3.3,0.5,6.3,1.7,9.3,3.1c5,2.4,7.5,6.7,8.4,12.1
					c0.7,4,0.5,7.9-1.9,11.4c-2.1,3-4.9,5.2-8.2,6.7c-1.8,0.9-2.3,2.2-1.3,3.9c0.4,0.8,0.7,1.6,1.2,2.4c3.8,6.2,6.9,12.7,10.5,19
					c1.2,2.1,0.4,3.5-2,3.5c-2.3,0-4.5-0.1-6.8,0c-2.1,0.1-3.3-0.8-4.2-2.6c-2-3.9-4.1-7.9-6.2-11.8c-1.4-2.5-2.7-5-4-7.6
					c-0.6-1.2-1.1-2.7-3-2.7c-3.8,0-7.5-0.2-11.3-0.3c-2.1,0-2.6,0.4-2.6,2.6c0,6.4,0,12.8,0,19.2c0,2.1-0.7,2.9-2.8,3
					c-2.2,0.1-4.3,0-6.5,0c-1.2,0-2.2-0.4-2.8-1.5C3442.4,553.4,3442.2,553,3441.7,552.9z M3465,502c-2.6,0.1-5.4,0-8.2,0.4
					c-1.4,0.2-2.2,1-2.2,2.4c0,4.7,0,9.4,0,14.1c0,1.7,0.5,2.2,2.3,2.2c2.4,0.1,4.9,0.2,7.3,0.1c4.1-0.2,8.2,0.3,12.1-1.3
					c2.2-0.9,4.2-2.2,5-4.4c1.8-5.3,0.3-10.4-5.7-12.5C3472.1,501.9,3468.6,502.1,3465,502z"/>
				<path class="st0" d="M3609.9,555.5c-0.2,0-0.4-0.1-0.5-0.1c-0.3-0.5-0.8-0.8-1.4-0.8c-0.2-0.1-0.4-0.1-0.6-0.2
					c-0.4-0.6-1-1.1-1.8-1.1c-0.1,0-0.2-0.1-0.3-0.1c-0.2-0.3-0.3-0.6-0.5-0.8c-1.5-1.1-2.3-2.7-3.1-4.3c-0.8-1.6-0.5-3.4-1.1-5
					c0-0.6,0-1.1,0-1.7c0.6-1.1,0.4-2.2,0.2-3.3c0-0.2,0.1-0.4,0.1-0.5c0.8-1.2,1.4-2.4,1.7-3.8c0.3-0.3,0.5-0.6,0.8-0.9
					c0.5-0.1,0.8-0.4,1-0.9c0.2-0.2,0.4-0.3,0.6-0.5c0.4,0.1,0.6-0.1,0.7-0.5c0.3-0.1,0.5-0.2,0.8-0.3c1.8-0.6,3.6-0.9,5.2-2
					c0.3,0,0.6-0.1,0.9-0.1c0.4,0.3,0.7,0.3,1-0.1c0.2,0,0.4,0,0.7-0.1c1.9,0.1,3.7,0,5.5-0.7c1.2-0.1,2.3-0.1,3.5-0.2
					c0.8,0.4,1.6,0.4,2.3-0.1c0.9,0,1.8-0.1,2.6-0.1c1.3,0.1,2.8,0.7,3.8-0.8c0,0,0.1-0.1,0.1-0.1c0.5-0.1,0.7-0.4,0.9-0.9
					c0.8-1.8-0.2-4.4-2.2-5.7c-0.2-0.1-0.5-0.2-0.7-0.4c-0.2-0.8-0.7-1-1.5-0.8c-0.2,0-0.4-0.1-0.6-0.1c-0.3-0.4-0.6-0.4-1-0.1
					c-1.9,0-3.8,0-5.7,0c-1.3-0.4-2.7-0.4-4,0.1c-1.6,0-3.3,0.1-4.9,0.1c-2-0.3-4.1-0.3-6.1,0c-0.3,0-0.6-0.1-0.9-0.1
					c-0.1-0.3-0.3-0.4-0.6-0.4c0,0,0,0,0,0c0-0.4-0.1-0.7-0.2-1.1c-0.8-4.4-0.2-5.9,2.9-7.5c0.8,0,1.7-0.1,2.5-0.1
					c2.3,0.2,4.6-0.1,6.8-0.9c0.7,0,1.5,0,2.2-0.1c2.1,0.2,4.2,0.4,6.3-0.2c1.3,0,2.7,0,4,0c0.1,0.1,0.3,0.3,0.4,0.3
					c3.1-0.2,5.8,1.3,8.5,2.4c4.7,2.1,6.5,6.2,6.6,11c0.1,10,0.1,20,0,30c0,0.7-0.1,1.4-0.3,2.1c-0.2,0.9-1,1.4-1.9,1.3
					c-2-0.3-4.1-0.4-5.9-1.6c-2.1-1.5-4.1-1-6.1,0.2c-0.5,0.1-1,0.1-1.6,0.2c-1.1-0.2-1.9,0.2-2.7,0.8c-0.4,0.1-0.8,0.1-1.3,0.2
					c-1.9,0.1-3.7,0.3-5.5,0.9c-1.6,0.1-3.1,0.1-4.7,0C3613.2,555.7,3611.6,555.6,3609.9,555.5z M3632.7,540.4c0-0.8,0-1.5,0-2.3
					c0-2.7-0.2-3-3-3.1c-3.4-0.2-6.7,0.3-10.1,0.4c-1.4,0.1-2.7,0.5-3.9,1.2c-3.4,1.9-4.4,5.7-2.1,8.5c1.3,1.6,3.1,2.5,5.2,2.5
					c4,0.1,8-0.9,12-1.3c1.2-0.1,1.9-1,1.9-2.3C3632.6,542.7,3632.7,541.6,3632.7,540.4z"/>
				<path class="st0" d="M3578.5,530.2c0,3.8,0,7.5,0.2,11.3c0.2,3.7,1.5,5.1,5.2,5.2c2.3,0,4.5-0.1,6.8,0c2,0,2.6,0.6,2.8,2.7
					c0.1,1.3,0.1,2.6,0.1,4c0,1-0.5,2-1.5,2.1c-2,0.2-3.8,1.2-5.8,1.1c-4-0.1-8,0.3-12-0.9c-3.8-1.1-6.1-3.4-7.3-7
					c-1.3-3.6-1.4-7.4-1.4-11.3c0.1-5.4,0-10.7,0-16.1c0-1.9-0.4-2.2-2.2-2.3c-4.2-0.1-4.2-0.1-4.8-4.4c-0.1-0.5-0.1-1.1-0.1-1.6
					c0-2.1,1.1-3.2,3.2-3.2c4.1-0.1,4.1,0.8,4.1-4.3c0-0.6,0-1.1,0-1.7c-0.2-1.4,0.7-2.2,1.8-2.7c2.8-1.1,5.8-1.5,8.7-1.8
					c1.2-0.1,2.4,0.5,2.5,2.1c0.1,1.9,0.1,3.8,0.2,5.6c0.1,2.5,0.4,2.7,2.8,2.7c2.9,0,5.9,0,8.8,0c2.2,0,3,0.8,3,3
					c0,1.2,0,2.3,0,3.5c0,2.3-0.6,2.9-3,2.9c-3,0-6,0-9,0c-2.5,0-3,0.5-3,3C3578.5,524.9,3578.5,527.6,3578.5,530.2z"/>
				<path class="st0" d="M3456.5,625.6c-0.2,0-0.4,0-0.6,0c-0.5-0.9-1.5-1-2.3-1.1c-3.2-0.2-6.2-1.7-9.2-2.5
					c-1.8-0.5-1.9-1.5-0.8-2.8c0.6-0.7,1.1-1.4,1.2-2.5c0.2-1.1,0.9-1.8,2.1-1.9c1.1-0.1,2.2,0.2,3.2,0.7c4.4,2.1,8.5,4.6,13,6.4
					c3.9,1.6,7.9,2.8,12.3,2.9c4.5,0.1,6.8-4.4,6-7.8c-0.3-1.1-0.5-2.3-0.8-3.4c-0.3-1.5-1.7-2.5-3.1-2.1c-1.6,0.5-3.4,0.4-4.8,1
					c-3.2,1.5-6-0.3-9-0.6c-0.7-0.1-1-0.8-1-1.4c-0.1-2.9-0.2-5.7,0.7-8.5c1.4-4.5,3.4-8.8,5.8-12.9c2.7-4.8,5.8-9.3,10-13
					c4.2-3.7,7.3-3.9,11.8-0.8c3.6,2.5,4.3,4.4,3.3,8.6c-0.3,1.4-1,2.6-1.5,3.8c-1.6,3.8-3.6,7.4-6.6,10.4c-1.5,1.5-3.2,2.9-5.6,3
					c-1.1,0-1.5-0.4-1.1-1.4c0.6-1.3,0.9-2.8,1.8-3.9c1.8-2,3.5-4.1,4.9-6.4c1.2-1.9,2.5-3.9,2.9-6.2c0.2-1,0.8-2.3-0.4-2.8
					c-1-0.4-1.7,0.7-2.4,1.4c-5.5,5.4-10.7,11.1-13.3,18.6c-0.7,2-1.1,4.3-0.3,6.1c0.8,1.7,2.9,0.5,4.4,0.8c0.2,0,0.5,0,0.7,0
					c1.2,0.3,2.7,0,3.6,0.9c1.5,1.4,3.2,2.7,4.3,4.6c0.7,1.2,1.3,2.4,1.3,3.9c0,4.6-2.2,6.7-6.1,8.5c-1.7,0.8-3.1,1.6-3.8,3.5
					c-0.4,1.3-1.5,1.4-2.2,0.2c-1.2-1.8-2.9-2.3-4.8-2.3c-3.1,0-6.3-0.4-9.4-0.9C3459.6,625.5,3458,624.9,3456.5,625.6z"/>
				<path class="st0" d="M3716.9,544.1c1.5-3.2,2.3-6,3.2-8.9c0.5-1.6,0.6-3.4,1.7-4.8c0.2-0.3,0.4-0.7,0.4-1.1
					c0.1-2.6,1.6-4.7,2.3-7.1c0.6-1.9,1.2-3.7,1.7-5.6c0.5-2.3,1.4-4.4,2.5-6.4c0.2-0.5,0.7-0.5,1.1-0.5c3-0.3,6-0.3,8.9-0.2
					c2.6,0.1,2.9,1.1,2.5,3.6c-0.4,2.3-1.4,4.5-2.1,6.8c-0.5,1.9-0.9,3.9-2,5.6c-0.8,1.2-0.9,2.7-1.2,4c-0.4,2-1,4-1.8,5.7
					c-1,2.2-1.2,4.5-2,6.7c-0.7,1.8-1.2,3.7-1.9,5.5c-0.8,2.1-1,4.3-1.8,6.3c-0.6,1.6-1.2,3.3-1.8,5c-1.5,4.3-3.6,8.1-7.9,10.7
					c-4.7,2.8-9.5,2.1-14.4,1.9c-2.9-0.1-5.5-1.4-8.4-1.2c-1.4,0.1-2.5-1.2-2.6-2.6c-0.1-1.4-0.4-2.7-0.2-4.1
					c0.3-1.8,1.5-2.2,2.8-2.3c2.6-0.2,5.3-0.1,7.9,0.5c2.6,0.6,4.9-0.4,7.2-1.2c1.3-0.4,2-1.9,2.4-3.4c0.2-0.9-0.4-1.2-1.2-1.1
					c-2.5,0.1-4.4-1-5.7-2.9c-1-1.4-1.7-2.9-2.1-4.7c-0.9-3.2-1.1-6.6-3.1-9.4c-0.8-1.1-0.7-2.6-1.1-3.8c-0.7-2-1.5-4.1-1.9-6.2
					c-0.3-1.6-0.8-3.1-1.4-4.6c-0.9-2.7-1.6-5.4-2.4-8.1c-0.4-1.5-1.4-2.8-1.3-4.5c0.1-1.2,0.4-1.9,1.8-2.1c3.1-0.4,6.3-0.4,9.4,0.1
					c1.4,0.2,1.9,1.7,2.3,2.9c0.6,2,1.1,4,2.1,5.9c0.6,1.2,0.5,2.6,1,3.9c0.7,1.8,1.2,3.8,2,5.7c0.9,2,1.2,4,1.8,6
					c0.6,1.8,1.7,3.4,1.8,5.3C3715.5,541,3716.9,542,3716.9,544.1z M3707.8,569.8c1.9,0,3.2-0.1,4.4,0c3.4,0.4,6.1-1.3,8.4-3.4
					c3-2.8,4.4-6.5,5.4-10.4c0.2-0.9,0.6-1.8,0.8-2.7c0.5-1.7,1.4-3.3,1.7-5c0.2-1,0.4-1.9,0.8-2.8c0.7-1.8,1.2-3.6,1.7-5.4
					c0.6-1.9,1.2-3.8,1.7-5.7c0.3-1.4,0.7-2.9,1.3-4.2c1-2.3,1.7-4.6,2.3-7c0.4-1.6,1-3.2,1.7-4.7c1-2.2,1.9-4.3,1.9-6.7
					c0-0.8-0.2-1.4-1.2-1.4c-2.7,0-5.3,0-8,0c-0.6,0-1.4,0.1-1.5,0.8c-0.2,1.7-1.1,3.1-1.7,4.6c-0.9,2.8-1.8,5.5-2.7,8.3
					c-1.1,3.2-2.2,6.5-3.3,9.7c-1,3-1.9,6.1-2.9,9.1c-0.3,0.8-0.6,1.9-1.6,1.9c-1,0-1.1-1.1-1.5-1.8c-0.2-0.4-0.3-0.8-0.4-1.3
					c-1.5-4.6-3-9.3-4.5-13.9c-1.5-4.7-2.9-9.5-4.6-14.1c-0.4-1.2-0.6-3-2.2-3.3c-2.8-0.6-5.6-0.5-8.4-0.1c-1.2,0.2-1.7,1.1-1.3,2.2
					c0.8,2.7,1.7,5.3,2.5,8c0.8,2.5,1.6,5,2.3,7.6c0.9,3.1,1.8,6.3,2.9,9.3c1.5,3.8,2.6,7.9,4.3,11.7c1.5,3.2,2.8,5.5,6.6,5.6
					c2.3,0.1,3.1,1.7,2.1,3.5c-2,3.8-5.9,5.6-10.2,5c-2.8-0.4-5.7-0.6-8.6-0.5c-1,0-1.6,0.8-1.5,1.6c0.1,1.2,0,2.4,0.5,3.6
					c0.2,0.5,0.4,1,1,1c1.5-0.1,2.8,0.5,4.2,0.8C3703,569.9,3705.7,569.7,3707.8,569.8z"/>
				<path class="st0" d="M3456.5,625.6c1.5-0.7,3.1-0.1,4.5,0.2c3.1,0.6,6.2,0.9,9.4,0.9c2,0,3.7,0.6,4.8,2.3
					c0.8,1.2,1.8,1.1,2.2-0.2c0.6-1.9,2.1-2.7,3.8-3.5c4-1.8,6.1-3.9,6.1-8.5c0-1.4-0.6-2.7-1.3-3.9c-1.1-1.8-2.8-3.1-4.3-4.6
					c-1-0.9-2.4-0.6-3.6-0.9c-0.2-0.1-0.4,0-0.7,0c-1.5-0.3-3.6,0.9-4.4-0.8c-0.9-1.9-0.4-4.1,0.3-6.1c2.6-7.5,7.8-13.1,13.3-18.6
					c0.7-0.7,1.4-1.8,2.4-1.4c1.2,0.5,0.6,1.8,0.4,2.8c-0.5,2.3-1.7,4.2-2.9,6.2c-1.4,2.3-3.1,4.4-4.9,6.4c-1,1.1-1.3,2.5-1.8,3.9
					c-0.4,1,0,1.4,1.1,1.4c2.4,0,4-1.4,5.6-3c3-2.9,4.9-6.5,6.6-10.4c0.5-1.3,1.2-2.5,1.5-3.8c1-4.2,0.3-6.1-3.3-8.6
					c-4.6-3.2-7.6-2.9-11.8,0.8c-4.2,3.7-7.3,8.2-10,13c-2.3,4.1-4.3,8.4-5.8,12.9c-0.9,2.8-0.8,5.7-0.7,8.5c0,0.6,0.3,1.3,1,1.4
					c3,0.3,5.8,2,9,0.6c1.5-0.7,3.2-0.5,4.8-1c1.4-0.5,2.8,0.6,3.1,2.1c0.2,1.1,0.5,2.3,0.8,3.4c0.9,3.4-1.5,7.9-6,7.8
					c-4.4-0.1-8.4-1.3-12.3-2.9c-4.5-1.8-8.7-4.3-13-6.4c-1-0.5-2.1-0.8-3.2-0.7c-1.2,0.1-2,0.8-2.1,1.9c-0.1,1-0.6,1.7-1.2,2.5
					c-1.2,1.3-1,2.3,0.8,2.8c3.1,0.9,6,2.3,9.2,2.5c0.8,0.1,1.8,0.2,2.3,1.1c-2.8-0.3-5.6-0.4-8.3-1.4c-1.3-0.5-2.5-1.1-3.8-1.5
					c-2.1-0.6-2.6-1.8-1.5-3.6c0.6-1,1.3-1.8,1.4-3.1c0.2-1.5,2.8-2.7,4.4-2.3c1.7,0.4,3.3,1.1,4.8,1.9c3.2,1.6,6.3,3.5,9.5,4.9
					c4,1.7,8.2,3.2,12.6,2.9c1.8-0.1,3.8-0.1,4.8-2.1c0.5-1,0.9-1.9,0.7-3c-0.2-1.2-0.3-2.4-0.4-3.6c-0.2-1.4-1.1-2.1-2.5-2.1
					c-2.1,0-4,0.7-6,1c-2.2,0.3-4.3,0.3-6.4,0c-2.3-0.4-3.5-1.3-3.6-4.3c0-1.8,0.3-3.6,0.5-5.4c0.9-6.7,4.5-12.2,7.7-17.9
					c1.5-2.7,3.4-5.1,5.3-7.5c2.5-3.1,5.7-5.3,9.7-6.2c3-0.7,5.2,1.1,7.5,2.7c1.5,1,1.9,2.8,3.2,3.9c0.4,0.3,0.2,0.8,0.1,1.3
					c-0.2,0.9-0.2,1.9,0,2.8c0.1,0.3,0.2,0.7,0,1c-1,1.5-1.3,3.2-2,4.8c-1,1.9-1.9,3.9-3,5.7c-1.1,1.8-2.6,3.3-4.1,4.8
					c-1.7,1.8-4.1,2.4-6.4,3c-1,0.3-1.5-0.2-1.6-1.1c-0.3-2.3,0.6-4.3,2-5.8c2.6-2.9,4.6-6.1,6.6-9.3c0.1-0.1,0.1-0.2,0.1-0.3
					c0.4-0.9,1.1-2.3,0.4-2.8c-0.6-0.5-1.3,0.9-1.9,1.5c-2.6,2.5-5.1,5.2-7.2,8.2c-2.5,3.6-4.7,7.4-4.7,12c0,1.2,0.4,2,1.8,2
					c1.2-0.1,2.3,0,3.5,0c1.8-0.1,3.1,0.7,4.2,2.1c0.7,0.9,1.7,1.5,2.5,2.4c1.7,1.9,2.3,3.9,2.4,6.4c0.1,3.1-1.3,5.3-3.5,7.1
					c-1.4,1.1-3.2,1.7-4.8,2.6c-0.8,0.5-1.6,1.1-1.7,2c-0.1,1.4-1.1,1.6-2.1,1.7c-1.1,0.1-2.1-0.4-2.4-1.4c-0.4-1.2-1.4-1.5-2.4-1.6
					c-3.6-0.4-7.1-0.6-10.7-1.1C3459.4,626.5,3457.9,626.2,3456.5,625.6z"/>
				<path class="st0" d="M3658.2,533c0-6.2,0-12.4,0-18.6c0-3.4,1.6-5.3,5-5.7c3-0.4,5.9,0.8,8.8,1c0.9,0.1,0.9,1.1,0.9,1.8
					c0.1,1.1,0.4,1.4,1.4,0.7c2.9-1.8,6.4-2.4,9.6-3.5c1.3-0.4,2.9-0.5,4.2,0.8c0.7,0.6,1.1,1.2,1.1,2.1c0,1.6,0,3.2,0,4.8
					c0,1.4-0.7,2.1-1.9,2.8c-1.5,0.9-3.1,0.9-4.7,0.9c-1.6,0.1-3,1-4.5,1.6c-1.2,0.5-2.4,0.9-3.5,1.6c-1.2,0.8-1.9,1.6-1.9,3.1
					c0,8.7,0,17.3,0,26c0,2.6-0.9,3.4-3.5,3.4c-2.4,0-4.8,0-7.1,0c-2.9,0-3.8-0.9-3.8-3.9C3658.2,545.7,3658.2,539.3,3658.2,533z
					 M3659.9,532.8c0,6.6,0,13.1,0,19.7c0,1.8,0.6,2.5,2.5,2.5c1.7,0,3.4,0,5.1,0c2.4,0.1,3.3-0.3,3.3-3.2c-0.1-8-0.1-15.9,0-23.9
					c0-1.7-0.4-3.8,1.6-4.9c4-2.2,8.1-4.4,12.9-4.6c1.3-0.1,2-0.8,2.1-2.1c0-1.7,0-3.3,0-5c0-0.9-0.4-1.2-1.3-1.4
					c-2.5-0.4-4.8,0.7-7.1,1.3c-1.9,0.5-3.6,1.7-5.5,2.5c-1.5,0.7-2.5,0.1-2.4-1.5c0-1.2-0.5-1.8-1.7-2c-2.1-0.4-4.2-0.3-6.3-0.3
					c-2.3,0-3.2,1-3.2,3.2C3659.9,519.9,3660,526.3,3659.9,532.8z"/>
				<path class="st0" d="M3441.7,552.9c0.5,0.1,0.7,0.5,0.9,0.9c0.6,1.1,1.6,1.5,2.8,1.5c2.2,0,4.3,0.1,6.5,0c2.1-0.1,2.8-0.9,2.8-3
					c0-6.4,0-12.8,0-19.2c0-2.2,0.5-2.7,2.6-2.6c3.8,0.1,7.5,0.3,11.3,0.3c1.9,0,2.3,1.5,3,2.7c1.3,2.5,2.6,5.1,4,7.6
					c2.1,3.9,4.2,7.8,6.2,11.8c0.9,1.7,2.1,2.7,4.2,2.6c2.3-0.1,4.5,0,6.8,0c2.4,0,3.2-1.4,2-3.5c-3.6-6.3-6.7-12.8-10.5-19
					c-0.5-0.7-0.7-1.6-1.2-2.4c-1-1.7-0.5-3,1.3-3.9c3.3-1.6,6.1-3.7,8.2-6.7c2.4-3.5,2.6-7.4,1.9-11.4c-0.9-5.4-3.4-9.7-8.4-12.1
					c-2.9-1.4-6-2.6-9.3-3.1c-5.3-0.8-10.7-1-16-0.6c-5.1,0.4-10.1,0.8-15.2,0.9c-2.5,0.1-3.2,1-3.2,3.5c0,14.4,0,28.9,0,43.3
					c0,1.9-0.2,3.9-0.3,5.8c0,0.4-0.1,0.8-0.5,0.9c-0.1-0.5-0.1-1-0.1-1.5c0-16.4,0-32.7,0-49.1c0-2.3,1-3.3,3.2-3.6
					c9.7-0.9,19.5-1.5,29.3-0.9c4.7,0.3,9.2,1.5,13.4,3.9c3.1,1.8,5.3,4.2,6.7,7.2c0.9,1.8,1.8,3.9,1.8,6c0,2,0.2,4.1-0.1,6.1
					c-0.7,4.1-3.3,7-6.5,9.5c-1.2,0.9-2.5,1.8-3.9,2.4c-1.6,0.7-1.8,3-0.4,5c2.6,3.8,4.5,8,6.8,12c1.3,2.3,2.5,4.7,3.8,7
					c0.5,0.9,0.6,1.9,0.9,2.8c0.2,0.7-0.5,1.7-1.5,1.8c-3.8,0.5-7.6,0.5-11.4,0c-2-0.3-2.5-2.4-3.4-3.8c-1.6-2.7-3-5.5-4.4-8.3
					c-1.5-2.9-3.2-5.6-4.4-8.7c-1.1-2.8-1.9-3.4-5-3.4c-3,0-6,0-9-0.1c-1.4,0-1.7,0.4-1.7,1.7c0.1,6.5,0,13,0,19.6
					c0,2.4-0.6,3.2-3.1,3.3c-2.7,0.1-5.3,0.1-8,0C3442.5,555.8,3441.6,554.8,3441.7,552.9z"/>
				<path class="st0" d="M3528.3,556.9c-4.4,0.7-8.2-0.9-12-2c-5.8-1.7-9.3-5.5-11.4-11.2c-2-5.5-1.5-11-1.3-16.6
					c0.1-2.6,0.5-5,1.5-7.3c0.8-1.8,2-3.5,3.4-5c2.6-2.6,5.6-4.5,9.3-5.5c3.5-0.9,7-1.1,10.5-1.3c2.4-0.1,4.9,0.1,7.2,0.5
					c5.3,0.8,10.6,2.5,14.1,7.1c1.4,1.8,2.1,4.1,3,6.2c1.5,3.1,0.6,6.3,1.7,9.3c0.1,0.3,0.2,0.8,0,1.1c-1,3-0.3,6.3-1,9.3
					c-0.2,1.1-0.8,2.2-1.3,3.3c-1.8,4.3-4.7,7.6-9,9.4c-1.8,0.8-3.8,1.3-5.8,1.7C3534.2,556.7,3531.2,557,3528.3,556.9z
					 M3504.6,532.3c0.1,2.4-0.5,4.8,0.2,7.1c0.7,2.2,1.6,4.4,2.4,6.5c0.3,1,1,1.8,1.6,2.6c3.9,4.7,9.3,6.5,15.1,6.8
					c5.1,0.3,10.2,0.4,15.3-1.1c2.3-0.7,4.4-1.5,6.2-3c3.4-2.9,5.9-6.4,6.2-11.1c0.2-2.6,0.8-5.2,1.2-7.8c0.4-2.3-0.8-4.3-1-6.5
					c-0.1-2.3-0.9-4.5-1.8-6.5c-2.6-5.5-7.3-8.4-13.1-9.3c-4.8-0.7-9.7-1.3-14.6-0.5c-4.1,0.7-8,1.7-11.2,4.4
					c-4.4,3.7-6.4,8.8-6.6,14.6C3504.5,529.9,3504.6,531.1,3504.6,532.3z"/>
				<path class="st0" d="M3463.3,691.1c-1.5,0-2.8,0-4,0c-0.6,0-0.9-0.4-1.2-0.8c-1.2-1.6-2.4-3.2-3.6-4.7c-0.5-0.7-1.1-1.2-2-1.5
					c-2.1-0.5-2.5-0.2-2.5,1.9c0,1.2-0.1,2.4,0,3.6c0.1,1.2-0.4,1.6-1.5,1.4c-0.4-0.1-0.9,0-1.3,0c-0.8,0.1-1.1-0.2-1.1-1
					c0-5,0-10,0-15.1c0-0.9,0.4-1.1,1.2-1.1c3.1,0.1,6.2-0.1,9.3,0.2c3.1,0.3,4.8,1.7,5.1,4.2c0.3,2.4-1.1,4.2-4,5.1
					c-0.2,0-0.3,0.1-0.7,0.2C3459.8,685.5,3461.3,688.3,3463.3,691.1z M3453.1,681.2C3453.1,681.1,3453.1,681.1,3453.1,681.2
					c0.8-0.1,1.5,0,2.3-0.1c1.3,0,2.3-0.6,2.3-2c0.1-1.4-0.9-2.1-2.2-2.2c-1.6-0.1-3.2,0-4.8-0.1c-0.6,0-0.7,0.2-0.8,0.8
					c-0.5,3.2-0.2,3.6,3,3.6C3453,681.2,3453.1,681.2,3453.1,681.2z"/>
				<path class="st0" d="M3495.2,682.5c0-2.4,0-4.9,0-7.3c0-0.9,0.1-1.3,1.2-1.3c2.8,0.1,5.5-0.1,8.3,0.2c1,0.1,2,0.4,2.8,0.8
					c3,1.7,4.4,5.9,3.5,10.3c-0.7,3.4-3.2,5.5-6.8,5.8c-2.6,0.2-5.3,0-8,0.1c-0.9,0-1-0.4-1-1.1
					C3495.2,687.5,3495.2,685,3495.2,682.5z M3499,682.4c0,0.6,0,1.2,0,1.8c0,4.1,0,4.1,4.2,3.9c1.3-0.1,2.5-0.3,3.1-1.5
					c1.2-2.5,1.3-5.2,0.2-7.7c-1-2.2-3.2-2-5.2-2.1c-0.4,0-0.9,0-1.3,0c-0.7-0.1-1,0.3-1,1C3499.1,679.3,3499,680.9,3499,682.4z"/>
				<path class="st0" d="M3456.1,649c3.5,0,3.5,0,3.5,3.5c0,3.9-0.6,4.7-4.4,5.6c-4,1-7.8-0.1-9.6-3c-2.1-3.2-2.1-8.2,0.1-11.3
					c3-4.1,10.5-4.2,12.9-0.1c0.3,0.6,1.3,1.6,0.3,2c-0.9,0.4-2.3,1.4-3.3-0.3c-0.9-1.6-2.4-1.8-4-1.7c-1.8,0.2-3,1.1-3.6,2.7
					c-0.7,2-0.7,4.1,0.1,6.2c1.2,3,4.7,3.7,7.7,1.6c0.8-0.5,0.4-1.3,0.4-2c0-0.8-0.7-0.4-1.2-0.5c-0.4-0.1-0.8-0.1-1.2,0
					c-1.1,0.1-1.6-0.2-1.5-1.4c0-1.1,0.2-1.7,1.5-1.5C3454.5,649.1,3455.3,649,3456.1,649z"/>
				<path class="st0" d="M3644.2,651.6c0.9-0.3,0.3-1.7,1.6-1.5c2.1,0.3,2.5,0.7,1.5,2.6c-0.8,1.4-0.4,2.1,0.8,2.7
					c0.7,0.4,1.3,0.8,0.4,1.6c-0.7,0.6-0.9,2.3-2.3,1c-1.1-1-2-1.1-3.4-0.3c-1.9,1.2-4.1,1.1-6.2,0.1c-3.6-1.6-3.9-6.2-0.6-8.6
					c1.1-0.8,1.4-1.3,0.5-2.5c-1-1.3-1.1-2.9,0-4.3c1.4-1.8,3.4-1.8,5.5-1.5c1.6,0.3,2.7,1.3,3,2.9c0.4,1.6-0.2,2.9-1.5,3.8
					c-1.3,0.9-1.4,1.6-0.3,2.6C3643.6,650.7,3643.9,651.2,3644.2,651.6z M3639.4,655.8c1-0.1,2.1-0.3,2.6-1.1
					c0.5-0.8-0.6-1.2-0.9-1.8c-0.4-0.7-0.9-1.2-1.4-1.8c-0.2-0.3-0.5-0.7-0.9-0.4c-1.2,0.7-1.9,1.7-1.7,3.1
					C3637.2,655.2,3638.2,655.7,3639.4,655.8z M3640.6,643.2c-0.9,0-1.6,0.3-1.5,1.3c0.1,1,0.6,2,1.5,2.1c0.8,0,1.7-0.9,1.7-1.9
					C3642.2,643.6,3641.5,643.2,3640.6,643.2z"/>
				<path class="st0" d="M3486.4,647.3c2.9-2.2,4.1-2.3,6.8-0.3c0.6,0.5,0.8,0,1-0.2c1.5-1.3,3.1-1.6,4.9-0.8c1.8,0.8,2,2.4,2.1,4
					c0,2.4,0,4.8,0,7.1c0.1,1.4-0.9,1.1-1.6,1.1c-0.7,0-1.7,0.4-1.6-1.1c0.1-2.2,0-4.4,0-6.6c0-1.1-0.1-2.4-1.6-2.4
					c-1.5,0-2.2,1-2.3,2.3c-0.1,2.1-0.2,4.2-0.1,6.3c0.1,1.4-0.5,1.5-1.6,1.5c-1,0-1.8,0.1-1.7-1.4c0.1-2.1,0-4.3,0-6.5
					c0-1.1-0.1-2.2-1.6-2.3c-1.4,0-2.2,0.8-2.3,2.1c-0.1,2.1-0.2,4.3-0.1,6.5c0.1,1.4-0.5,1.6-1.7,1.6c-1.3,0-1.7-0.4-1.6-1.7
					c0.1-3.1,0-6.2,0-9.3c0-0.6-0.4-1.6,0.9-1.5C3485.2,646,3486.6,645.1,3486.4,647.3z"/>
				<path class="st0" d="M3589.7,687.2c0.9-0.1,1.7-0.2,2.5-0.3c0.5-0.1,0.9-0.2,1.2,0.5c0.3,1,1.1,1.3,2.1,1.3
					c1-0.1,1.8-0.6,2.1-1.6c0.3-0.8,0.5-1.7,0.5-2.7c-1.4,0.5-2.7,1.2-4.2,0.9c-2.2-0.4-3.7-1.6-4.4-3.8c-0.6-2.2-0.3-4.2,1.4-5.8
					c3.1-3.1,8.9-1.9,10.4,2.3c1.1,3.1,1,6.2,0,9.3c-1.2,3.6-5.6,5.3-9,3.6C3590.8,690.1,3590,688.8,3589.7,687.2z M3592.9,679.6
					c0,2.1,0.9,3.2,2.5,3.2c1.5,0,2.5-1.1,2.5-2.9c0-1.9-1.1-3.3-2.7-3.3C3593.8,676.6,3592.9,677.7,3592.9,679.6z"/>
				<path class="st0" d="M3671,647.9c0,1.8,0.1,3.6,0,5.5c-0.1,2.8-1.6,4.4-4.4,5c-1.6,0.3-3.2,0.3-4.8-0.2c-2-0.6-3.4-1.9-3.7-4
					c-0.6-4.1-0.3-8.2-0.3-12.2c0-1.5,1.3-0.6,2.1-0.8c0.8-0.2,1.4,0,1.3,1.1c-0.1,2.5,0,5.1,0,7.6c0,0.8,0,1.5,0,2.3
					c0.1,2.4,1.2,3.4,3.3,3.4c2.1,0,3.1-1,3.1-3.4c0-3.3,0.1-6.5,0-9.8c-0.1-1.6,1-1.2,1.8-1.3c1-0.1,1.7-0.1,1.6,1.3
					c-0.1,1.8,0,3.6,0,5.5C3671.1,647.9,3671.1,647.9,3671,647.9z"/>
				<path class="st0" d="M3604.1,691.1c0.2-2,1.1-3.5,2.4-4.7c1.6-1.5,3.2-2.9,4.8-4.3c0.6-0.6,1.2-1.1,1.6-1.9
					c0.6-1.4,0.2-2.8-1-3.3c-1.5-0.6-3,0-3.6,1.4c-0.3,0.8-2.3,1.4-3.3,0.8c-0.9-0.6-0.3-1.4,0-2c1.1-2.4,3.3-3,5.6-3.1
					c2.4-0.1,4.5,0.5,5.8,2.8c0.9,1.7,0.5,3.3-0.4,4.9c-0.9,1.5-2.2,2.6-3.5,3.7c-0.9,0.7-1.9,1.4-2.7,2.7c2.1,0,3.9,0.1,5.7,0
					c1.4-0.1,1.5,0.5,1.5,1.6c0,1.2-0.4,1.5-1.5,1.4C3611.6,691,3607.9,691.1,3604.1,691.1z"/>
				<path class="st0" d="M3585.3,647.2c1.8-1.7,3.7-2.2,5.7-1.1c2.1,1.1,2.8,3,3,5.2c0.1,1.5-0.1,3-0.7,4.4
					c-1.5,2.9-4.5,3.7-7.2,1.7c-0.2-0.1-0.3-0.4-0.7-0.2c0,1.5-0.1,3,0,4.5c0.1,1.4-0.7,1.2-1.5,1.2c-0.8,0-1.8,0.3-1.7-1.2
					c0.1-4.7,0-9.5,0.1-14.2c0-0.6-0.5-1.6,0.8-1.6C3583.8,645.9,3585.2,645.2,3585.3,647.2z M3590.7,651.6c0-0.2,0-0.7-0.1-1.2
					c-0.3-1.3-1-2.2-2.4-2.3c-1.4,0-2.2,0.8-2.6,2.1c-0.1,0.5-0.2,1.1-0.2,1.6c0,2.4,1.1,4,2.8,4
					C3589.8,655.9,3590.7,654.5,3590.7,651.6z"/>
				<path class="st0" d="M3569.1,681.9c2.2,0.9,3.5,2.3,3.2,4.7c-0.3,2.2-2.1,3.9-4.5,4.5c-3.3,0.8-6.6-0.5-7.7-3.2
					c-0.4-1-0.4-1.5,0.9-1.6c1.3-0.1,2.3-0.3,3,1.3c0.5,1.2,2,1.3,3.2,0.7c1.3-0.7,1.6-1.9,1.3-3.3c-0.3-1.3-1.2-1.8-2.5-2
					c-0.5,0-1.4,0.7-1.4-0.3c0-0.8-0.3-2.1,1.3-2.2c1.1-0.1,2-0.7,2-2c0-1-0.4-1.6-1.3-1.8c-1.2-0.3-2.2,0-2.8,1.2
					c-0.4,0.8-2.7,1.1-3.4,0.4c-0.3-0.3-0.1-0.6,0-0.9c0.6-2.1,2.7-3.5,5.5-3.5c2.5-0.1,4.9,1.2,5.6,3.2c0.5,1.4,0.3,2.6-0.8,3.7
					C3570.1,681.1,3569.6,681.4,3569.1,681.9z"/>
				<path class="st0" d="M3520.8,687.5c0.8-0.1,1.6-0.3,2.4-0.4c0.6-0.1,1,0,1.4,0.6c0.9,1.3,3.1,1.7,4.5,0.9c0.4-0.2,0.8-0.5,0.7-1
					c0-0.5-0.4-0.8-0.9-0.9c-1.5-0.4-3-0.7-4.5-1.1c-2.3-0.7-3.3-1.8-3.3-3.6c0-1.8,1.3-3.2,3.6-3.5c2.3-0.3,4.7-0.5,6.7,0.9
					c0.7,0.5,1.5,1.1,1.3,2.1c-0.1,0.4-3,0.6-3.4,0.1c-0.9-1.1-2.1-1-3.3-0.9c-0.6,0-1.3,0.1-1.4,0.9c-0.1,0.8,0.7,0.9,1.3,1
					c1.8,0.5,3.7,0.7,5.4,1.4c2.5,1.1,3,3.7,1,5.6c-2.5,2.3-8.5,2.1-10.7-0.4C3521.2,688.8,3520.8,688.3,3520.8,687.5z"/>
				<path class="st0" d="M3522,647.1c0.7-0.5,1.2-0.8,1.7-1.1c2.8-1.4,5.9,0.1,6.1,3.2c0.2,2.7,0.1,5.4,0.1,8.1c0,1.5-1.3,0.6-2,0.8
					c-0.7,0.2-1.3,0-1.2-1c0.1-2.3,0-4.5,0-6.8c0-1.2-0.3-2.2-1.8-2.3c-1.4-0.1-2.3,0.6-2.6,2c-0.4,2.2-0.3,4.5-0.2,6.8
					c0,1.4-0.6,1.3-1.6,1.3c-1,0-1.6,0.1-1.6-1.3c0.1-4.8,0.1-9.6,0-14.4c0-1.3,0.5-1.4,1.5-1.4c1.1,0,1.8,0.1,1.6,1.5
					C3521.9,644,3522,645.4,3522,647.1z"/>
				<path class="st0" d="M3543.7,658.3c-1.4-0.4-2.8,0.7-3.6-1c-0.2-0.4-0.6,0.2-0.9,0.4c-1.3,0.8-2.6,1.1-4.1,0.7
					c-1.6-0.5-2.7-1.7-2.7-3.3c0-1.6,0.7-2.9,2.3-3.4c1.4-0.4,2.8-0.7,4.2-1.1c0.4-0.1,1.1-0.1,1-0.8c0-0.7-0.3-1.2-1-1.4
					c-1.1-0.2-2.2-0.4-3,0.7c-0.9,1.3-2.1,0.4-2.8,0.1c-0.7-0.3,0.1-1.2,0.5-1.8c1.5-2.1,6.8-2.4,8.6-0.4c0.5,0.6,0.7,1.2,0.8,2
					c0,1.5,0.1,3.1,0.1,4.6C3542.9,655,3542.9,656.5,3543.7,658.3z M3539.8,653.5c-0.5-0.1,0.7-1.1-0.5-1.1c-1.9,0-3.8,1-3.7,2
					c0,1,0.7,1.6,1.7,1.7C3538.6,656.3,3539.7,655.2,3539.8,653.5z"/>
				<path class="st0" d="M3516.3,652.1c0,3.7-2.7,6.5-6.3,6.5c-3.7,0-6.2-2.7-6.2-6.5c0-3.8,2.6-6.4,6.3-6.4
					C3513.7,645.6,3516.3,648.3,3516.3,652.1z M3513,652c0-1.2-0.2-2.3-1.2-3.1c-1.1-0.9-2.7-0.9-3.7,0.2c-1.4,1.4-1.3,4.6,0,5.9
					c1.1,1,2.6,1.1,3.7,0.1C3512.7,654.3,3513,653.2,3513,652z"/>
				<path class="st0" d="M3750.2,652.9c-0.9,0-1.8,0.1-2.7,0c-1.5-0.1-1.4,0.7-0.9,1.6c0.8,1.7,2.8,1.9,4,0.4
					c0.4-0.5,2.8-0.6,3.2-0.1c0.3,0.4-0.1,0.7-0.2,1c-1.1,2-3,2.7-5.2,2.6c-2.3-0.1-4.1-1.1-4.9-3.3c-0.8-1.9-0.8-3.9-0.1-5.8
					c0.8-2.5,2.8-3.8,5.4-3.8c2.5,0.1,4.4,1.5,5.1,4c1,3.2,0.8,3.4-2.5,3.4C3751,652.9,3750.6,652.9,3750.2,652.9z M3748.6,650.9
					c0.3,0,0.7,0,1,0c0.5,0,1.1,0.3,1.4-0.2c0.3-0.6-0.1-1.2-0.4-1.7c-0.3-0.5-0.8-0.8-1.3-0.9c-1-0.2-1.7,0.1-2.3,0.8
					c-0.4,0.5-0.8,1.2-0.4,1.7c0.4,0.6,1.3,0.2,2,0.3C3748.5,650.9,3748.5,650.9,3748.6,650.9z"/>
				<path class="st0" d="M3715.1,652.9c-1,0-2,0-3,0c-1-0.1-1.1,0.5-0.9,1.2c0.3,0.9,0.8,1.6,1.8,1.8c1,0.2,1.8,0,2.4-1
					c0.3-0.5,2.9-0.5,3.2,0c0.2,0.4-0.1,0.7-0.3,1c-1.2,2.1-3.2,2.8-5.5,2.5c-2.4-0.2-4-1.5-4.7-3.8c-0.5-1.7-0.5-3.5,0-5.2
					c0.8-2.5,2.7-3.9,5.2-3.9c2.7,0,4.5,1.3,5.3,3.9c1,3.2,0.8,3.5-2.5,3.5C3715.7,652.9,3715.4,652.9,3715.1,652.9z M3713.4,650.9
					c0.3,0,0.6,0,0.8,0c0.5-0.1,1.4,0.4,1.6-0.4c0.2-0.7-0.2-1.4-0.8-1.9c-0.3-0.2-0.6-0.4-1-0.5c-0.9-0.3-1.7,0.1-2.3,0.8
					c-0.4,0.5-0.8,1.2-0.4,1.7c0.4,0.6,1.3,0.2,2,0.3C3713.3,650.9,3713.3,650.9,3713.4,650.9z"/>
				<path class="st0" d="M3612.3,656.7c-1,0.8-1.8,1.4-2.8,1.6c-2.5,0.6-4.7-0.7-5-3.2c-0.3-2.8-0.2-5.6-0.1-8.4
					c0-1.5,1.3-0.7,2-0.8c0.8-0.2,1.2,0.1,1.2,1c-0.1,2.2,0,4.4,0,6.6c0,1.3,0.3,2.3,1.9,2.4c1.4,0.1,2.4-0.7,2.5-2.3
					c0.2-2.1,0.2-4.2,0.2-6.3c0-1.3,0.4-1.6,1.6-1.5c1.1,0,1.7,0.1,1.7,1.5c-0.1,3.1,0,6.3-0.1,9.4c0,0.6,0.4,1.6-0.9,1.5
					C3613.5,658.1,3612.2,658.8,3612.3,656.7z"/>
				<path class="st0" d="M3734.9,645.6c2,0,3.4,0.1,4.6,1.3c0.5,0.5,1.4,1.4,0.7,1.9c-0.7,0.5-2,1.1-2.8,0.1c-0.9-1-1.9-1-3-0.9
					c-0.5,0.1-1.2,0.2-1.2,0.9c0,0.6,0.6,0.8,1,0.9c1.3,0.4,2.6,0.7,3.8,1.1c2.1,0.7,3,1.8,3,3.4c0,1.8-1.3,3.4-3.3,3.8
					c-2.6,0.6-5.1,0.5-7-1.6c-0.5-0.5-1.3-1.5-0.6-1.8c0.8-0.3,2.1-1.3,3,0.1c0.9,1.4,2.3,1.4,3.7,1c0.5-0.1,0.9-0.5,0.9-1.1
					c0-0.6-0.4-0.8-0.9-1c-1.2-0.3-2.5-0.6-3.7-1c-2.2-0.7-3.2-2-3-3.8c0.2-1.8,1.6-3.1,3.7-3.4
					C3734.4,645.6,3734.9,645.6,3734.9,645.6z"/>
				<path class="st0" d="M3677.7,647.5c1.1-0.9,1.8-1.5,2.8-1.8c2.8-0.8,5.1,0.8,5.3,3.7c0.1,2.6,0,5.2,0.1,7.8c0,1.5-1.1,0.9-1.7,1
					c-0.7,0.1-1.6,0.3-1.5-1c0.1-2.1,0.1-4.2,0-6.3c0-1.3-0.2-2.6-1.9-2.7c-1.5-0.1-2.5,1-2.6,2.8c-0.1,2-0.1,4.1,0,6.1
					c0.1,1.4-0.7,1.2-1.5,1.2c-0.8-0.1-1.8,0.4-1.8-1.1c0.1-3.2,0-6.4,0-9.6c0-0.7-0.4-1.7,1-1.6
					C3676.6,646,3678.1,645.1,3677.7,647.5z"/>
				<path class="st0" d="M3470.9,656.4c-1.2,1.1-2,1.7-3.1,2c-2.6,0.7-4.9-0.8-5-3.5c-0.1-2.6,0-5.3-0.1-8c0-1.5,1-0.9,1.7-1
					c0.8-0.1,1.5-0.2,1.5,1.1c-0.1,2.2,0,4.3,0,6.5c0,1.3,0.2,2.5,1.9,2.5c1.5,0,2.5-0.9,2.5-2.7c0.1-2,0.1-4.1,0-6.1
					c-0.1-1.4,0.8-1.3,1.7-1.3c0.9,0,1.7-0.2,1.7,1.3c-0.1,3.2,0,6.4,0,9.6c0,0.7,0.3,1.7-1.1,1.5
					C3471.8,658.1,3470.2,658.9,3470.9,656.4z"/>
				<path class="st0" d="M3565.7,651.1c0-2,0-4,0-6c0-0.9-0.3-1.2-1.1-1.1c-0.7,0.1-1.4,0-2.2,0c-1.6,0-2.1-0.9-1.7-2.4
					c0.2-0.6,0.6-0.5,1.1-0.5c3.7,0,7.4,0,11.1,0c1.2,0,1.1,0.7,1.1,1.5c0,0.9,0,1.5-1.2,1.4c-1.2,0-2.8-0.5-3.5,0.2
					c-0.8,0.8-0.2,2.4-0.3,3.7c0,3-0.1,6.1,0,9.1c0.1,1.5-0.9,1.2-1.7,1.2c-0.8,0-1.8,0.4-1.7-1.2
					C3565.8,655.1,3565.7,653.1,3565.7,651.1z"/>
				<path class="st0" d="M3540.7,674.4c0,0.8,0,1.4,0,1.9c0,1.3-0.4,2.8,1.9,2.5c1.1-0.1,0.5,1,0.6,1.5c0.1,0.6,0,1.2-0.8,1
					c-1.5-0.2-1.8,0.5-1.7,1.8c0.1,1.4,0,2.8,0,4.1c0,0.9,0.4,1.6,1.4,1.3c1.2-0.3,1.1,0.4,1.2,1.1c0.2,0.8,0.1,1.4-0.9,1.5
					c-1,0.2-2.1,0.3-3.1,0c-1.4-0.3-2.2-1.1-2.2-2.5c-0.1-2-0.1-4.1-0.1-6.1c0-0.5,0.2-1.2-0.7-1.2c-1,0-1-0.5-1-1.3
					c0-0.7-0.1-1.5,1-1.4c0.4,0,0.7-0.2,0.6-0.6c-0.5-2.2,1.3-2.5,2.6-3.2C3539.8,674.7,3540.1,674.6,3540.7,674.4z"/>
				<path class="st0" d="M3580.4,678.9c-1.3,0.8-2.4,1.5-3.7,2c-0.9,0.3-1,0.1-1-0.7c-0.1-1.3,0.2-2.1,1.5-2.6
					c1.5-0.6,2.8-1.6,3.6-3.1c0.2-0.4,0.5-0.6,1-0.6c2.2-0.2,2.2-0.2,2.2,2c0,4.6-0.1,9.2,0,13.7c0.1,1.8-1,1.4-2,1.4
					c-1.1,0.1-1.8,0-1.8-1.5C3580.5,686.1,3580.4,682.6,3580.4,678.9z"/>
				<path class="st0" d="M3700.4,654c0.9-2.4,1.7-4.6,2.5-6.9c0.4-1.1,2.3-1.8,3.4-1.3c0.5,0.3,0.2,0.5,0.1,0.8
					c-1.4,3.6-2.8,7.2-4.2,10.8c-0.4,1.1-1.3,0.6-1.9,0.7c-0.7,0.1-1.3,0.1-1.6-0.8c-1.3-3.6-2.7-7.1-4.2-10.6
					c-0.3-0.8-0.1-0.9,0.6-1c1.6-0.1,2.7,0.1,3.1,2C3698.7,649.8,3699.6,651.8,3700.4,654z"/>
				<path class="st0" d="M3630.5,554.3c2-1.2,4-1.7,6.1-0.2c1.7,1.2,3.8,1.4,5.9,1.6c0.9,0.1,1.6-0.4,1.9-1.3
					c0.2-0.7,0.3-1.4,0.3-2.1c0-10,0.1-20,0-30c-0.1-4.8-1.9-8.9-6.6-11c-2.7-1.2-5.4-2.6-8.5-2.4c-0.1,0-0.3-0.2-0.4-0.3
					c1.2-0.7,2.7-0.6,3.8-0.2c3.8,1.4,7.9,2.3,10.2,6.2c1,1.7,1.9,3.5,2.1,5.6c0.2,2,0.3,4.1,0.3,6.1c0,5.9,0.5,11.8,0.4,17.7
					c0,3.5-0.5,7-0.7,10.5c-0.1,1.9-2.5,3-4.5,2c-1.6-0.8-3.5-0.9-5.1-1.8c-0.9-0.5-2.1-0.6-3.2-0.2
					C3631.9,554.7,3631.1,555,3630.5,554.3z"/>
				<path class="st0" d="M3600,641.5c0,1.1,0,1.9,0,2.7c-0.1,1,0,1.9,1.4,1.7c1-0.1,0.8,0.7,0.8,1.2c0,0.6,0.2,1.5-0.9,1.4
					c-1.3-0.2-1.4,0.5-1.4,1.5c0.1,1.5,0,3,0,4.5c0,0.8,0.3,1.4,1.1,1.2c1-0.2,1.2,0.2,1.2,1c0,0.8,0.1,1.4-1,1.7
					c-2.8,0.6-4.4-0.5-4.6-3.3c-0.1-1.8,0-3.6,0-5.5c0-0.4,0.2-1-0.5-1.1c-1,0-1-0.6-1-1.3c0-0.7-0.1-1.5,1-1.4
					c0.1,0,0.4-0.3,0.4-0.4C3596.2,642.9,3598.3,642.6,3600,641.5z"/>
				<path class="st0" d="M3472.8,682.4c0-2.4,0.1-4.7,0-7.1c0-1.1,0.3-1.5,1.4-1.4c0.5,0.1,1,0,1.5,0c0.8-0.1,1.1,0.3,1.1,1.1
					c0,5,0,10,0,15.1c0,0.8-0.3,1-1.1,1c-2.8,0.1-2.8,0.1-2.8-2.7C3472.8,686.4,3472.8,684.4,3472.8,682.4z"/>
				<path class="st0" d="M3480.4,649.8c0,2.4-0.1,4.8,0,7.1c0.1,1.4-0.7,1.4-1.6,1.3c-0.8,0-1.7,0.3-1.7-1.2c0.1-4.9,0.1-9.7,0-14.6
					c0-1.6,0.9-1.3,1.8-1.3c1.1-0.1,1.6,0.2,1.5,1.4C3480.3,644.9,3480.4,647.4,3480.4,649.8z"/>
				<path class="st0" d="M3724.5,647.3c0.7-0.6,1-1.1,1.5-1.4c1-0.6,2.1-0.6,3,0.1c0.8,0.6-0.1,1.4-0.2,2.1
					c-0.1,0.7-0.4,0.8-1.2,0.6c-1.4-0.4-2.2,0.2-2.5,1.6c-0.5,2.2-0.3,4.4-0.2,6.6c0,1.3-0.5,1.5-1.5,1.4c-0.9-0.1-1.8,0.3-1.8-1.3
					c0.1-3.2,0-6.4,0-9.6c0-0.6-0.3-1.6,0.9-1.5C3723.3,646,3724.8,645,3724.5,647.3z"/>
				<path class="st0" d="M3621.6,647.4c0.9-1,1.4-1.7,2.4-1.8c0.8,0,1.9-0.1,2.2,0.7c0.3,0.7-0.4,1.6-0.6,2.3
					c-0.1,0.4-0.4,0.3-0.7,0.1c-2.1-0.8-2.8,0.6-3,2.4c-0.1,1.9-0.2,3.8-0.1,5.6c0.1,1.4-0.5,1.5-1.6,1.5c-1,0-1.8,0.1-1.7-1.4
					c0.1-3.2,0-6.4,0-9.6c0-0.6-0.2-1.5,0.9-1.3C3620.3,646,3621.8,645,3621.6,647.4z"/>
				<path class="st0" d="M3549.2,647c0.6-0.5,1.1-1,1.6-1.2c1-0.4,2.1-0.4,2.8,0.3c0.6,0.7-0.3,1.5-0.5,2.3
					c-0.1,0.6-0.5,0.4-0.9,0.3c-1.8-0.3-2.6,0.2-2.8,2.1c-0.2,2.1-0.3,4.2-0.2,6.3c0.1,1.5-0.9,1.2-1.7,1.2c-0.9,0-1.6,0.1-1.5-1.2
					c0.1-3.2,0-6.5,0.1-9.8c0-0.5-0.4-1.4,0.6-1.4C3547.6,646,3549,645.2,3549.2,647z"/>
				<path class="st0" d="M3514.5,684.8c0-1.7,0.1-3.3,0-5c0-1,0.3-1.3,1.2-1.2c0.5,0.1,1,0,1.5,0c0.7,0,1,0.2,1,0.9
					c0,3.5,0,7,0,10.5c0,0.7-0.2,1.1-0.9,1c-0.6,0-1.2,0-1.8,0c-0.7,0.1-1-0.2-1-0.9C3514.6,688.4,3514.5,686.6,3514.5,684.8z"/>
				<path class="st0" d="M3692.3,652.1c0,1.7-0.1,3.4,0,5.1c0.1,1.2-0.7,1.1-1.4,1c-0.7-0.1-1.8,0.6-1.8-0.9c0-3.5,0-7,0-10.6
					c0-1.5,1.2-0.8,1.8-0.9c0.7-0.1,1.5-0.3,1.4,1C3692.2,648.6,3692.3,650.4,3692.3,652.1z"/>
				<path class="st0" d="M3575.7,651.9c0-1.7,0.1-3.3,0-5c-0.1-1.4,0.9-1.1,1.7-1.1c0.8,0,1.7-0.3,1.6,1.1c-0.1,3.4-0.1,6.8,0,10.2
					c0,1.5-1.1,0.9-1.7,1c-0.7,0.1-1.6,0.3-1.5-1C3575.8,655.4,3575.7,653.7,3575.7,651.9z"/>
				<path class="st0" d="M3516.2,677c-1.2,0.3-1.6-0.1-1.7-1.5c-0.1-1.8,0.9-1.5,2-1.6c1.2-0.1,1.7,0.1,1.8,1.6
					C3518.3,677.3,3517.3,677.1,3516.2,677z"/>
				<path class="st0" d="M3467.4,691c-1.4,0.3-2,0-2-1.6c0-1.7,0.8-1.6,2-1.7c1.3-0.1,1.8,0.1,1.8,1.6
					C3469.1,690.8,3468.8,691.5,3467.4,691z"/>
				<path class="st0" d="M3482.2,691c-1.3,0.2-1.9,0.1-1.9-1.6c0-1.6,0.6-1.7,1.9-1.7c1.4,0,1.9,0.2,1.9,1.8
					C3484,691,3483.5,691.3,3482.2,691z"/>
				<path class="st0" d="M3547.4,691.1c-1,0.2-1.7,0-1.7-1.6c0-1.6,0.7-1.7,1.9-1.7c1.4,0,2,0.2,1.8,1.8
					C3549.3,691,3549.4,691.1,3547.4,691.1z"/>
				<path class="st0" d="M3577.2,644.2c-1.5,0.4-1.4-0.6-1.5-1.7c-0.1-1.5,0.7-1.3,1.7-1.4c1.3-0.1,1.6,0.4,1.6,1.7
					C3579.1,644.3,3578.3,644.3,3577.2,644.2z"/>
				<path class="st0" d="M3690.8,641.2c1.4-0.4,1.5,0.4,1.6,1.5c0.1,1.5-0.7,1.5-1.8,1.5c-1.3,0.1-1.5-0.5-1.5-1.6
					C3689,641.1,3689.6,640.9,3690.8,641.2z"/>
				<path class="st0" d="M3600.6,543.1c0.7,1.6,0.4,3.4,1.1,5c0.8,1.7,1.6,3.2,3.1,4.3c0.2,0.2,0.3,0.5,0.5,0.8
					c-1.5,0-2.2-1.2-2.8-2.2C3601,548.7,3599.6,546.1,3600.6,543.1z"/>
				<path class="st0" d="M3607.4,509.9c-3.1,1.6-3.7,3.1-2.9,7.5c0.1,0.4,0.1,0.7,0.2,1.1c-1-0.1-1-0.9-1-1.6c0-1.5,0-3,0-4.5
					C3603.7,510.5,3605.4,509.4,3607.4,509.9z"/>
				<path class="st0" d="M3630.7,520.1c2,1.3,3,3.9,2.2,5.7c-0.2,0.4-0.4,0.8-0.9,0.9c0-0.4-0.1-0.9-0.1-1.3c0.1-1.5,0.1-3-1-4.2
					C3630.6,520.9,3630.5,520.5,3630.7,520.1z"/>
				<path class="st0" d="M3616.7,508.9c-2.2,0.8-4.4,1.1-6.8,0.9C3612.1,508.7,3614.3,508.3,3616.7,508.9z"/>
				<path class="st0" d="M3625.2,508.6c-2.1,0.6-4.2,0.4-6.3,0.2c0.3-0.7,0.9-0.5,1.4-0.5C3621.9,508.4,3623.6,507.8,3625.2,508.6z"
					/>
				<path class="st0" d="M3606.2,519c2-0.3,4.1-0.3,6.1,0c-1.3,1.2-2.9,0.3-4.4,0.5C3607.4,519.6,3606.6,519.8,3606.2,519z"/>
				<path class="st0" d="M3619.7,527.8c-1.8,0.7-3.6,0.8-5.5,0.7c0.5-1.1,1.6-0.8,2.4-0.9C3617.6,527.4,3618.7,527.2,3619.7,527.8z"
					/>
				<path class="st0" d="M3619.4,556.4c1.8-0.6,3.7-0.8,5.5-0.9C3623.3,556.8,3621.4,557.1,3619.4,556.4z"/>
				<path class="st0" d="M3611.7,528.7c-1.6,1.1-3.4,1.4-5.2,2C3608,529.3,3609.7,528.6,3611.7,528.7z"/>
				<path class="st0" d="M3609.9,555.5c1.6,0,3.3,0.2,4.8,0.9C3612.9,557,3611.3,556.8,3609.9,555.5z"/>
				<path class="st0" d="M3617.2,518.8c1.3-0.5,2.6-0.5,4-0.1C3619.9,519.5,3618.6,519.4,3617.2,518.8z"/>
				<path class="st0" d="M3602.6,533.8c-0.3,1.4-0.9,2.6-1.7,3.8C3600.6,536.1,3601.2,534.7,3602.6,533.8z"/>
				<path class="st0" d="M3631.9,526.7c-1,1.5-2.5,0.8-3.8,0.8C3629.2,526.3,3630.7,526.9,3631.9,526.7z"/>
				<path class="st0" d="M3600.8,538.1c0.3,1.1,0.4,2.2-0.2,3.3C3600.1,540.3,3599.9,539.2,3600.8,538.1z"/>
				<path class="st0" d="M3626.2,555.3c0.8-0.7,1.7-1,2.7-0.8C3628.1,555.1,3627.4,555.9,3626.2,555.3z"/>
				<path class="st0" d="M3625.5,527.5c-0.8,0.5-1.5,0.4-2.3,0.1C3624,526.9,3624.7,527,3625.5,527.5z"/>
				<path class="st0" d="M3605.6,553.3c0.8,0.1,1.3,0.5,1.8,1.1C3606.4,554.7,3605.8,554.4,3605.6,553.3z"/>
				<path class="st0" d="M3628.5,518.9c0.8-0.2,1.2,0,1.5,0.8C3629.2,519.9,3628.7,519.6,3628.5,518.9z"/>
				<path class="st0" d="M3608,554.7c0.6,0,1.1,0.3,1.4,0.8C3608.6,555.8,3608.1,555.6,3608,554.7z"/>
				<path class="st0" d="M3604.4,532c-0.2,0.5-0.5,0.8-1,0.9C3603.3,532.1,3603.6,531.8,3604.4,532z"/>
				<path class="st0" d="M3613.6,528.5c-0.3,0.4-0.6,0.4-1,0.1C3612.9,528.1,3613.2,528,3613.6,528.5z"/>
				<path class="st0" d="M3626.9,518.7c0.4-0.3,0.7-0.3,1,0.1C3627.5,519.3,3627.1,519.3,3626.9,518.7z"/>
				<path class="st0" d="M3605.7,531c-0.1,0.4-0.4,0.5-0.7,0.5C3604.9,530.9,3605.2,530.8,3605.7,531z"/>
				<path class="st0" d="M3604.7,518.5c0.3,0,0.5,0,0.6,0.4C3604.7,519.4,3604.6,519,3604.7,518.5z"/>
				<path class="st0" d="M3570.6,624.5c0.6-1.4,2-2,2.9-3.1c1.7-2,3.1-4.3,4.5-6.5c2.1-3.3,3.5-6.8,3.8-10.7
					c0.3-3.2,1.2-6.3,1.9-9.5c0.4-1.9,0.7-3.9,1.8-5.5c0.7-1,0.6-2.2,1.1-3.4c0.8-1.8,1.9-3.4,3-4.9c2-2.8,4.4-5.5,8.2-6
					c1.5-0.2,2.2,0.3,2.5,1.8c0.6,3.6,0.1,6.9-0.8,10.4c-1,4-2.1,7.9-3.8,11.7c-1.8,4.1-4,7.9-6.6,11.5c-1.5,2-1.7,4.4-1.9,6.7
					c-0.2,1.8-0.4,3.8,0.5,5.7c0.9,2,1.9,2.3,3.7,1.2c3-1.9,4.9-4.9,6.9-7.8c1.5-2.1,2.5-4.5,3.6-6.7c0.7-1.6,1.5-3.2,1.8-5.1
					c0.2-1.4,1-2.8,1.6-4.1c0.7-1.4,1.1-2.9,1.9-4.3c0.5-0.9,0.9-1.4,1.8-1c1,0.5,2.4,0.8,2,2.4c-0.4,1.5-0.9,2.9-1.2,4.4
					c-0.5,2.5-0.6,5-0.7,7.5c-0.1,2.3,0,4.5,0,6.8c0,0.9,0.2,1.7,0.4,2.6c0.4,1.7,2.1,2.4,3.3,1.2c3.6-3.7,8-6.7,10.1-11.6
					c0.9-2,1.5-4.2,2.1-6.3c0.7-2.2,1.1-4.4,1.9-6.6c1-2.5,1.9-5.1,2.9-7.6c0.3-0.8,0.5-1.9-0.2-2.5c-0.7-0.7-1.7-0.3-2.7-0.1
					c-2.5,0.4-5.1,0.8-7.7,1.1c-1.2,0.2-2.4,0.4-3.6,0.4c-1.5,0.1-3.4,2.3-3.5,4.1c-0.1,1.2-0.4,1.3-1.4,0.7c-3-1.9-3.4-4.2-1.6-7.6
					c1.1-2,2.6-3,4.7-3.4c0.7-0.1,1.5-0.5,2.1-0.8c0.5-0.3,1-0.5,1.5-0.1c0.5,0.4,0.6,0.9,0.4,1.5c-0.5,2.6-0.3,2.7,2.2,2.3
					c2.2-0.3,4.3-1,6.5-0.8c3.4,0.2,6.4-0.8,8.1-4.1c0.9-1.6,2.4-2.3,4.1-2.6c1.3-0.2,2.3-1.2,3.7-1c1,0.1,1.5,0.2,0.9,1.3
					c-0.3,0.6-0.6,1.2-1,1.7c-0.6,0.7-0.8,1.5-0.4,2.3c0.4,0.7,1.3,0.8,2.1,0.7c6-0.8,12-0.7,18-0.5c3,0.1,6.1-0.1,9.1,0.5
					c0.9,0.2,1.7,0.7,2.7,0.8c0.9,0.1,1.2,1.7,0.4,2.4c-0.8,0.7-1.6,1.3-2.8,1.3c-6.7,0-13.4-0.4-20-0.6c-3.5-0.1-7,0.1-10.4,0.1
					c-2.6,0-3.3,1.5-3.9,3.1c-0.6,1.5-1.2,3.1-1.8,4.6c-1.2,2.7-2,5.4-3,8.1c-1.2,3.5-2.6,6.9-3.3,10.6c-0.4,1.9-0.9,3.9-1.5,5.8
					c-0.5,1.6-0.6,3.2-0.9,4.8c-0.2,1.3,1.3,2.9,2.7,3c0.3,0,0.6-0.2,0.7,0.2c0.1,0.4-0.2,0.6-0.5,0.7c-0.8,0.3-1.5,0.7-2.3,1
					c-0.3,0.1-0.5,0.3-0.9,0.1c-3.6-1.7-5.7-5.8-5-9.7c0.1-0.7,0.5-1.5-0.4-2.1c-1-0.6-1.4,0.3-1.9,0.8c-1.7,2.1-3.8,3.6-6.1,5
					c-2.3,1.4-7.2,1.1-8.7-0.8c-0.9-1.2-1.5-2.8-2-4.2c-0.4-1.1-0.8-1.2-1.6-0.5c-1.6,1.3-2.2,3.4-3.5,4.9c-2.1,2.5-4.2,5-7.6,5.7
					c-0.8,0.1-1.3,1.4-2.2,0.7c-2.1-1.6-5.3-2.1-5.4-5.7c0-1.6-1-2.9-1.1-4.6c-0.1-1.2-1-0.6-1.6-0.2c-1.3,0.8-1.4,2.4-2.4,3.5
					c-1.8,2-3.3,4.3-5.9,5.4C3570.8,624.7,3570.7,624.6,3570.6,624.5z M3598.7,582c0-0.3,0-0.6,0-0.8c0-0.5,0-1.1-0.6-1.2
					c-0.7-0.1-0.8,0.5-0.9,0.9c-0.2,0.8-0.9,1.3-1.1,2c-1.4,4.4-3.2,8.7-4.3,13.2c-0.4,1.5-0.7,3-1,4.5c-0.1,0.6-0.2,1.3,0.6,1.5
					c0.7,0.2,0.9-0.4,1.1-0.9c0.4-0.8,0.9-1.5,1.2-2.4c1.1-3,2.3-5.9,3.2-9C3597.5,587.3,3598.6,584.8,3598.7,582z"/>
				<path class="st0" d="M3570.9,624.8c-1.8,1.5-4.9,1.6-6.9,0.3c-1.7-1.1-2.8-2.7-3.1-4.7c-0.3-1.9-1-3.7-0.8-5.7
					c0.1-0.7-0.2-1.5-0.9-1.8c-0.8-0.3-1.2,0.3-1.6,0.8c-1.4,1.8-3,3.4-4.7,5c-2.7,2.5-5.9,4-9.6,4.4c-0.3,0-0.6,0-0.8,0.1
					c-1.8,1.6-2.4,0.7-3.2-1.1c-0.6-1.3-2.1-2.1-2.4-3.8c-0.2-1-2.2-0.7-2.8,0.4c-0.4,0.8-0.8,1.4-1.8,1.3l-0.1-0.1
					c-0.1-1.3,1-2.1,1.6-2.9c2-2.4,2.7-5.1,3.4-8c1-4.2,1.9-8.5,4.5-12.2c0.6-0.8,0.9-1.8,1.6-2.7c1.3-1.7,2.3-1.8,4.1-0.9
					c1.3,0.7,2.5,1.5,3.8,2.2c3.2,1.6,3.5,4.4,3.2,7.5c-0.3,2.9-2.5,4.6-4.3,6.6c-0.2,0.2-0.5,0.3-0.7,0c-0.2-0.3,0-0.5,0.1-0.8
					c0.6-0.8,1.2-1.7,1.7-2.5c0.9-1.3,1-2.9,1.8-4.2c0.7-1.2-0.2-2.3-1.1-3.2c-0.6-0.6-1.4-0.4-2.2,0c-0.9,0.4-1,1.4-1.2,2.1
					c-0.8,2.5-2.1,4.8-2.2,7.5c0,1.1,0.2,1.9,1.6,2c-0.2,0.3-0.3,0.4-0.4,0.5c-3.1,1.9-3.2,5.1-3.2,8.2c0,1.5,1.2,2.1,2.5,1.5
					c4.2-1.8,7.2-5,9.9-8.5c1-1.3,2.2-2.6,2.9-4.2c0.5-1.1,0.9-2.2,1-3.4c0.4-4.3,1.6-8.4,2.6-12.6c0.4-1.6,1-3.2,1.8-4.7
					c0.5-1,0.4-1.7-0.9-1.9c-0.3-0.1-0.6-0.2-1-0.2c-3,0.2-6.1-0.3-9.1-0.4c-5.1,0-10.3-0.5-15.4-0.3c-1.2,0-2.3,0.3-3.4,0.6
					c-0.7,0.2-1.1,0.7-1.4,1.3c-1.2,2.9-2.8,5.7-3.6,8.7c-0.8,2.8-2.3,5.4-2.8,8.3c-0.3,1.3-0.8,2.5-1.2,3.7
					c-0.9,2.6-1.1,5.3-2.2,7.7c0,0.1-0.1,0.2-0.1,0.3c-0.1,2-0.5,3.9-0.8,5.8c-0.4,2.4,0.2,2.9,3.5,3.9c-1.2,0.7-2.2,1.2-3.3,1.7
					c-0.3,0.1-0.7,0.1-1,0c-2.4-1.6-4.9-3.2-4.4-6.7c0.1-0.4,0-0.9,0-1.3c0.1-1.3-0.2-2.2-1.9-2.2c1.2-2.1,2.1-4.1,2.9-6.1
					c0.3-0.8,0.1-1.7,0.4-2.4c1.1-2.5,1.3-5.2,2.2-7.7c0.7-1.9,1.5-3.8,1.8-5.9c0.2-1.5,0.8-3,1.6-4.3c0.7-1.1,0.7-2.4,1.5-3.5
					c0.4-0.5,0.1-1.1-0.6-1.3c-0.5-0.1-1-0.4-1.4-0.3c-3.2,0.6-6.6-0.2-9.8,1.1c-1.4,0.6-3,0.1-4.4,0.4c-0.8,0.2-1.5,0.8-2.3,0.7
					c-0.4,0-0.9,0.1-1.1-0.5c-0.2-0.5,0-0.9,0.4-1.2c0.6-0.5,1.2-1.1,2-1.1c2.8-0.1,5.5-0.9,8.3-1.2c2.8-0.3,5.5-0.7,8.3-1
					c1.5-0.2,3.1-0.8,4.1-2.6c1.1-2.1,2.8-3.6,5.5-4c1.2-0.2,2.4-0.9,3.8-0.9c1,0.1,1,0.5,0.6,1.1c-0.5,0.8-1.1,1.7-1.7,2.5
					c-0.4,0.6-0.6,1.2-0.3,1.9c0.3,0.8,1,0.5,1.6,0.5c5-0.3,9.9-0.8,14.9-0.5c4.1,0.2,8.3-0.1,12.4,0.5c1,0.1,2-0.2,2.7-1
					c1.6-1.9,3.4-3.6,5.8-4.6c1-0.5,2.1-0.3,3.1-0.3c0.4,0,0.6,0.4,0.7,0.8c0.5,4.2,0.5,8.3-0.7,12.5c-0.6,2.1-1.1,4.2-1.7,6.3
					c-0.4,1.5-1.2,2.9-1.8,4.4c-1.9,4.4-4.5,8.5-7.3,12.4c-0.7,1-1,2.1-1,3.2c-0.1,2.5-0.1,5.1,0,7.6c0.1,1.7,1.9,2.7,4.1,2.5
					C3570.7,624.6,3570.8,624.7,3570.9,624.8z M3569.2,601c0,0.2,0,0.4,0,0.7c0,0.6,0,1.3,0.7,1.6c0.9,0.4,0.9-0.5,1.3-0.9
					c1.3-1,1.5-2.6,2-3.9c0.5-1.3,1.2-2.5,1.6-3.9c0.6-2,1.3-3.9,1.8-5.9c0.7-2.5,1.3-5.1,1.8-7.6c0.2-0.8,0.3-2-0.8-2.2
					c-1-0.2-1.5,0.9-2,1.7c-0.1,0.2-0.1,0.4-0.2,0.6c-0.7,1.4-1.1,2.9-1.6,4.4c-1.3,3.7-3.1,7.2-3.5,11.1c-0.1,0.5-0.3,1.1-0.5,1.5
					C3569.4,599.1,3569.2,600,3569.2,601z"/>
				<path class="st0" d="M3658.8,601.2c-0.1,3.7-1.9,6.4-4.5,8.5c-1.1,0.9-2.4,1.6-3.8,2.3c-1.4,0.7-1.7,2.4-1.9,3.8
					c-0.2,1.1-0.1,2.3-0.1,3.5c0.1,1.5,1.1,2,2.5,1.4c3.9-1.6,6.4-4.7,9.1-7.7c2-2.3,3.8-4.8,5.2-7.6c0.3-0.7,0.9-0.7,1.4-0.5
					c0.6,0.3,0.2,0.8,0,1.1c-3.3,5.3-6.9,10.3-11.9,14.1c-2.2,1.7-4.7,2.5-7.4,3.1c-0.3,0.1-0.5,0.1-0.8,0.1c-1,0-1.8,1.6-2.6,0.7
					c-0.5-0.6-1-1.4-1.5-2.2c-0.6-0.9-1.3-1.6-1.7-2.7c-0.6-1.6-1.7-1.6-2.8-0.3c-1.5,1.6-2.9,3.4-4.7,4.8c-0.3,0.2-0.5,0.7-0.9,0.3
					c-0.3-0.3-0.1-0.7,0.2-1c1.6-1.5,2.9-3.2,4.3-4.8c1.5-1.7,2.9-3.4,3.4-5.8c0.7-3.1,1.3-6.2,2.4-9.2c1.1-3,2.4-5.9,4.2-8.6
					c1.5-2.1,2.3-2.3,4.7-1c1.8,1,3.6,1.8,5.1,3.2C3658.1,598,3658.7,599.5,3658.8,601.2z M3656.1,601.9c-0.1-1.2,0.1-2.3-1-2.6
					c-1.2-0.4-1.3,0.7-1.8,1.5c-1.1,1.9-1.3,4.1-2.2,6c-0.2,0.5-0.3,1.1-0.3,1.6c0.1,0.8,0.5,1.3,1.3,0.6
					C3654.4,607,3655.5,604.4,3656.1,601.9z"/>
				<path class="st0" d="M3491.7,617.1c0.5-1.5,0.3-3.3,1.1-5.2c0.7-1.8,1-3.8,1.7-5.7c1.2-3.1,2.1-6.3,4.2-9c0.7-0.9,1.4-1.9,2-2.9
					c0.9-1.5,2.7-2.1,4.3-1.2c1.5,0.8,2.9,1.8,4.3,2.6c0.9,0.6,1.4,1.4,1.3,2.5c-0.1,0.9,0.1,2.3-1.5,0.8c-1-0.9-2.7-0.1-3.5,1.7
					c-1.4,3.1-2.7,6.3-3.9,9.6c-0.5,1.2,0,2.7-0.8,4c-0.2,0.4,0.1,0.9,0.6,1c0.7,0.1,1.3,0,1.6-0.8c1.3-2.5,2.6-5,3.9-7.6
					c0.6-1.2,1.5-2.3,2.6-3.1c0.5-0.4,0.9-0.7,1.5-0.4c0.6,0.4,0.4,1,0.2,1.5c-0.6,2.1-0.7,4.2-0.8,6.4c-0.1,1.8,0.8,3.4,1.2,5.1
					c0.1,0.6,0.9,0.9,1.5,1.2c0.4,0.1,0.8,0.2,0.8,0.7c-0.1,0.5-0.6,0.5-0.9,0.6c-1.6,0.6-2.9-0.1-3.5-1.8c-0.6-1.7-0.9-3.4-1.1-5.1
					c-0.1-0.6,0.1-1.6-0.9-1.8c-0.9-0.2-1,0.7-1.5,1.1c-0.3,0.2-0.5,0.5-0.6,0.8c-1.2,3.6-3.6,6.4-5.9,9.3c-0.2,0.2-0.3,0.4-0.4,0.7
					c-0.7,2-1.3,2.2-3,1c-0.3-0.2-0.5-0.5-0.8-0.6C3492.4,621.4,3491.7,620.4,3491.7,617.1z"/>
				<path class="st0" d="M3532.2,620.1c0.1,0.2,0.3,0.5,0.1,0.7c-1.2,1.4-2.5,2.5-4.1,3.5c-0.3,0.2-0.6,0.3-1-0.2
					C3529,622.9,3530.2,621,3532.2,620.1C3532.2,620,3532.2,620.1,3532.2,620.1z"/>
				<path class="st0" d="M3707.8,569.8c-2.1-0.1-4.8,0.2-7.5-0.3c-1.4-0.3-2.7-0.9-4.2-0.8c-0.6,0-0.8-0.4-1-1
					c-0.4-1.2-0.3-2.4-0.5-3.6c-0.1-0.8,0.5-1.5,1.5-1.6c2.9-0.1,5.8,0,8.6,0.5c4.3,0.6,8.3-1.2,10.2-5c0.9-1.8,0.1-3.4-2.1-3.5
					c-3.8-0.1-5.1-2.3-6.6-5.6c-1.7-3.8-2.7-7.8-4.3-11.7c-1.2-3-2-6.2-2.9-9.3c-0.7-2.5-1.5-5.1-2.3-7.6c-0.8-2.7-1.7-5.3-2.5-8
					c-0.4-1.2,0.1-2.1,1.3-2.2c2.8-0.4,5.6-0.5,8.4,0.1c1.5,0.3,1.7,2.1,2.2,3.3c1.6,4.7,3,9.4,4.6,14.1c1.5,4.7,3,9.3,4.5,13.9
					c0.1,0.4,0.2,0.9,0.4,1.3c0.4,0.7,0.5,1.8,1.5,1.8c1,0,1.4-1.1,1.6-1.9c1-3,1.9-6.1,2.9-9.1c1.1-3.2,2.2-6.5,3.3-9.7
					c0.9-2.8,1.8-5.5,2.7-8.3c0.5-1.6,1.4-3,1.7-4.6c0.1-0.7,0.9-0.8,1.5-0.8c2.7,0,5.3,0,8,0c1,0,1.2,0.6,1.2,1.4
					c0,2.4-0.9,4.5-1.9,6.7c-0.7,1.5-1.2,3.1-1.7,4.7c-0.6,2.4-1.3,4.7-2.3,7c-0.6,1.4-0.9,2.8-1.3,4.2c-0.5,2-1.1,3.9-1.7,5.7
					c-0.6,1.8-1.1,3.7-1.7,5.4c-0.4,0.9-0.6,1.9-0.8,2.8c-0.4,1.7-1.2,3.3-1.7,5c-0.3,0.9-0.6,1.8-0.8,2.7
					c-1.1,3.8-2.4,7.6-5.4,10.4c-2.3,2.1-4.9,3.8-8.4,3.4C3710.9,569.7,3709.6,569.8,3707.8,569.8z"/>
				<path class="st0" d="M3659.9,532.8c0-6.5,0-12.9,0-19.4c0-2.3,0.9-3.2,3.2-3.2c2.1,0,4.2-0.1,6.3,0.3c1.2,0.2,1.7,0.8,1.7,2
					c0,1.7,0.9,2.2,2.4,1.5c1.8-0.8,3.6-2,5.5-2.5c2.3-0.6,4.5-1.7,7.1-1.3c0.9,0.1,1.3,0.5,1.3,1.4c0,1.7,0,3.3,0,5
					c0,1.3-0.8,2.1-2.1,2.1c-4.8,0.2-8.9,2.3-12.9,4.6c-1.9,1.1-1.5,3.2-1.6,4.9c-0.1,8-0.1,15.9,0,23.9c0,2.9-0.9,3.3-3.3,3.2
					c-1.7-0.1-3.4,0-5.1,0c-1.8,0-2.5-0.7-2.5-2.5C3659.9,545.9,3659.9,539.4,3659.9,532.8z"/>
				<path class="st0" d="M3504.6,532.3c0-1.2,0-2.4,0-3.6c0.3-5.7,2.2-10.8,6.6-14.6c3.2-2.7,7.1-3.7,11.2-4.4
					c4.9-0.8,9.8-0.2,14.6,0.5c5.8,0.9,10.6,3.7,13.1,9.3c0.9,2,1.6,4.2,1.8,6.5c0.1,2.2,1.3,4.2,1,6.5c-0.4,2.6-1.1,5.1-1.2,7.8
					c-0.3,4.7-2.7,8.2-6.2,11.1c-1.7,1.4-3.9,2.3-6.2,3c-5,1.5-10.2,1.4-15.3,1.1c-5.8-0.3-11.2-2.1-15.1-6.8
					c-0.7-0.8-1.3-1.7-1.6-2.6c-0.8-2.2-1.7-4.3-2.4-6.5C3504.1,537.2,3504.7,534.7,3504.6,532.3z M3541.2,532.6
					c-0.1-2.2,0-4.1-0.4-6c-0.7-3.8-2.5-6.8-6.4-8.3c-3.1-1.2-6.3-0.9-9.5-0.7c-3.6,0.3-7.5,3.7-8.1,6.9c-0.8,3.9-1.6,7.8-0.7,11.8
					c0.4,1.8,0.3,3.7,1.2,5.4c1.6,3,4.1,4.6,7.4,5.4c3.5,0.8,6.7,0.5,9.9-0.5c2.4-0.8,4.1-2.6,5.3-4.9
					C3541.3,538.7,3540.6,535.5,3541.2,532.6z"/>
				<path class="st0" d="M3598.7,582c-0.1,2.7-1.2,5.3-1.9,7.8c-0.9,3.1-2.1,6-3.2,9c-0.3,0.8-0.8,1.6-1.2,2.4
					c-0.2,0.5-0.4,1.2-1.1,0.9c-0.8-0.2-0.7-0.9-0.6-1.5c0.3-1.5,0.6-3,1-4.5c1.1-4.5,2.9-8.7,4.3-13.2c0.2-0.7,0.9-1.2,1.1-2
					c0.1-0.4,0.3-1.1,0.9-0.9c0.6,0.1,0.6,0.7,0.6,1.2C3598.7,581.5,3598.7,581.7,3598.7,582z M3592.4,598.9
					c2.3-5.6,4.6-11.2,5.4-17.2C3595.4,587.2,3593,592.7,3592.4,598.9z"/>
				<path class="st0" d="M3569.2,601c0-1,0.2-1.8,0.7-2.7c0.3-0.5,0.5-1,0.5-1.5c0.4-4,2.2-7.5,3.5-11.1c0.5-1.5,0.9-3,1.6-4.4
					c0.1-0.2,0.1-0.4,0.2-0.6c0.5-0.8,1-1.9,2-1.7c1.1,0.2,1,1.4,0.8,2.2c-0.5,2.6-1.1,5.1-1.8,7.6c-0.5,2-1.2,3.9-1.8,5.9
					c-0.4,1.3-1.1,2.6-1.6,3.9c-0.5,1.3-0.8,2.9-2,3.9c-0.4,0.3-0.5,1.3-1.3,0.9c-0.6-0.3-0.7-0.9-0.7-1.6
					C3569.2,601.4,3569.2,601.2,3569.2,601z"/>
				<path class="st0" d="M3541.2,532.6c-0.5,2.8,0.1,6-1.3,9c-1.2,2.4-2.8,4.2-5.3,4.9c-3.2,1-6.5,1.4-9.9,0.5
					c-3.4-0.8-5.8-2.4-7.4-5.4c-0.9-1.7-0.7-3.6-1.2-5.4c-0.9-4-0.1-7.9,0.7-11.8c0.6-3.2,4.5-6.6,8.1-6.9c3.2-0.3,6.3-0.5,9.5,0.7
					c3.9,1.5,5.7,4.5,6.4,8.3C3541.1,528.5,3541,530.5,3541.2,532.6z M3517.2,531.7c0,1.4,0,2.4,0,3.3c-0.1,2.4,0.8,4.7,1.5,6.8
					c1,2.9,4,3.9,6.8,4.2c3,0.3,6.1,0.7,9.1-0.8c1.4-0.7,2.5-1.5,3.3-2.8c1.7-2.7,1.4-5.9,2-8.9c0.3-1.8,0-3.8-0.5-5.7
					c-0.5-1.7-0.4-3.5-1.5-5.1c-1.4-2.1-3.1-3.4-5.7-3.7c-2.6-0.3-5.2,0-7.7,0c-1.9,0-5.5,2.6-5.9,4.4
					C3518,526.4,3516.5,529.1,3517.2,531.7z"/>
			</g>
		</g>
	</g>
	<g>
		<defs>
			<polygon id="SVGID_15_" points="3692.1,701.7 3762.8,658 3761.1,603.2 3747,547 3744,476.3 3762.8,421 4082.5,399.2 
				4148.1,723.2 4109.5,880 3612,859.4 			"/>
		</defs>
		<clipPath id="SVGID_16_">
			<use xlink:href="#SVGID_15_"  style="overflow:visible;"/>
		</clipPath>
		<g class="st6">
			<g>
				<defs>
					<rect id="SVGID_17_" x="2561.9" y="470.4" width="1537.7" height="281.8"/>
				</defs>
				<clipPath id="SVGID_18_">
					<use xlink:href="#SVGID_17_"  style="overflow:visible;"/>
				</clipPath>
				<g style="clip-path:url(#SVGID_18_);">
					
						<image style="overflow:visible;" width="1251" height="229" xlink:href="3DFCDF57.png"  transform="matrix(1.2292 0 0 1.2306 2561.8843 470.3659)">
					</image>
				</g>
			</g>
		</g>
	</g>
</g>
</svg>
